<?xml version="1.0" encoding="utf-8"?>
<!-- Generator: Adobe Illustrator 14.0.0, SVG Export Plug-In . SVG Version: 6.00 Build 43363)  -->
<!DOCTYPE svg PUBLIC "-//W3C//DTD SVG 1.1//EN" "http://www.w3.org/Graphics/SVG/1.1/DTD/svg11.dtd">
<svg version="1.1" id="content" xmlns="http://www.w3.org/2000/svg" xmlns:xlink="http://www.w3.org/1999/xlink" x="0px" y="0px"
	 width="500px" height="500px" viewBox="0 0 500 500" enable-background="new 0 0 500 500" xml:space="preserve">
<g id="bounds">
	
		<rect x="120.545" y="-7.281" fill="none" stroke="#000000" stroke-width="1.0056" stroke-miterlimit="10" width="259.438" height="259.438"/>
</g>
<g id="beard">
	<rect x="0.765" y="0.5" display="none" fill="#FFFFFF" width="499" height="499"/>
	<path display="none" d="M499.265,1v498h-498V1H499.265 M500.265,0h-500v500h500V0L500.265,0z"/>
	<path fill="#382800" d="M145.057,153.493c-2.701,1.281-3.104,7.771,0.294,8.308c0.127,0.02,0.626-0.053,0.648-0.22
		c0.085-0.613-0.303-1.011-0.545-1.55c-0.338-0.755-0.479-1.625-0.556-2.441c-0.088-0.932,0.035-1.89,0.305-2.782
		c0.11-0.363,0.682-1.071,0.54-1.429C145.685,153.227,145.143,153.452,145.057,153.493L145.057,153.493z"/>
	<path fill="#382800" d="M141.71,153.493c-2.7,1.281-3.103,7.771,0.294,8.308c0.128,0.02,0.627-0.053,0.649-0.22
		c0.085-0.613-0.303-1.011-0.545-1.55c-0.338-0.755-0.479-1.625-0.556-2.441c-0.088-0.932,0.034-1.89,0.305-2.782
		c0.11-0.363,0.681-1.071,0.54-1.429C142.337,153.227,141.796,153.452,141.71,153.493L141.71,153.493z"/>
	<path fill="#382800" d="M148.801,153.493c-2.701,1.281-3.104,7.771,0.294,8.308c0.127,0.02,0.626-0.053,0.648-0.22
		c0.085-0.613-0.303-1.011-0.545-1.55c-0.338-0.755-0.479-1.625-0.556-2.441c-0.088-0.932,0.035-1.89,0.305-2.782
		c0.11-0.363,0.681-1.071,0.54-1.429C149.429,153.227,148.887,153.452,148.801,153.493L148.801,153.493z"/>
	<path fill="#382800" d="M152.544,153.493c-2.7,1.281-3.103,7.771,0.294,8.308c0.128,0.02,0.627-0.053,0.649-0.22
		c0.085-0.613-0.303-1.011-0.545-1.55c-0.338-0.755-0.479-1.625-0.556-2.441c-0.088-0.932,0.034-1.89,0.305-2.782
		c0.11-0.363,0.681-1.071,0.54-1.429C153.171,153.227,152.63,153.452,152.544,153.493L152.544,153.493z"/>
	<path fill="#382800" d="M156.287,153.493c-2.701,1.281-3.103,7.771,0.294,8.308c0.127,0.02,0.626-0.053,0.649-0.22
		c0.085-0.613-0.303-1.011-0.545-1.55c-0.338-0.755-0.479-1.625-0.557-2.441c-0.088-0.932,0.035-1.89,0.306-2.782
		c0.109-0.363,0.681-1.071,0.54-1.429C156.915,153.227,156.373,153.452,156.287,153.493L156.287,153.493z"/>
	<path fill="#382800" d="M160.031,153.493c-2.701,1.281-3.103,7.771,0.294,8.308c0.127,0.02,0.626-0.053,0.649-0.22
		c0.085-0.613-0.304-1.011-0.545-1.55c-0.338-0.755-0.479-1.625-0.557-2.441c-0.088-0.932,0.035-1.89,0.306-2.782
		c0.109-0.363,0.681-1.071,0.54-1.429C160.659,153.227,160.117,153.452,160.031,153.493L160.031,153.493z"/>
	<path fill="#382800" d="M163.776,153.493c-2.701,1.281-3.103,7.771,0.294,8.308c0.127,0.02,0.626-0.053,0.649-0.22
		c0.085-0.613-0.304-1.011-0.545-1.55c-0.339-0.755-0.479-1.625-0.557-2.441c-0.088-0.932,0.035-1.89,0.306-2.782
		c0.109-0.363,0.681-1.071,0.539-1.429C164.403,153.227,163.862,153.452,163.776,153.493L163.776,153.493z"/>
	<path fill="#382800" d="M167.519,153.493c-2.701,1.281-3.104,7.771,0.294,8.308c0.127,0.02,0.626-0.053,0.648-0.22
		c0.085-0.613-0.303-1.011-0.545-1.55c-0.338-0.755-0.479-1.625-0.556-2.441c-0.088-0.932,0.035-1.89,0.305-2.782
		c0.11-0.363,0.682-1.071,0.54-1.429C168.147,153.227,167.605,153.452,167.519,153.493L167.519,153.493z"/>
	<path fill="#382800" d="M171.263,153.493c-2.701,1.281-3.104,7.771,0.294,8.308c0.127,0.02,0.626-0.053,0.648-0.22
		c0.085-0.613-0.303-1.011-0.545-1.55c-0.338-0.755-0.479-1.625-0.556-2.441c-0.088-0.932,0.035-1.89,0.305-2.782
		c0.11-0.363,0.682-1.071,0.54-1.429C171.89,153.227,171.349,153.452,171.263,153.493L171.263,153.493z"/>
	<path fill="#382800" d="M175.007,153.493c-2.701,1.281-3.104,7.771,0.294,8.308c0.127,0.02,0.626-0.053,0.648-0.22
		c0.085-0.613-0.303-1.011-0.545-1.55c-0.338-0.755-0.479-1.625-0.556-2.441c-0.088-0.932,0.035-1.89,0.305-2.782
		c0.11-0.363,0.681-1.071,0.54-1.429C175.634,153.227,175.093,153.452,175.007,153.493L175.007,153.493z"/>
	<path fill="#382800" d="M178.749,153.493c-2.7,1.281-3.103,7.771,0.294,8.308c0.127,0.02,0.626-0.053,0.649-0.22
		c0.085-0.613-0.303-1.011-0.545-1.55c-0.338-0.755-0.479-1.625-0.556-2.441c-0.089-0.932,0.034-1.89,0.305-2.782
		c0.11-0.363,0.681-1.071,0.54-1.429C179.377,153.227,178.835,153.452,178.749,153.493L178.749,153.493z"/>
	<path fill="#382800" d="M182.493,153.493c-2.701,1.281-3.103,7.771,0.294,8.308c0.127,0.02,0.626-0.053,0.649-0.22
		c0.085-0.613-0.303-1.011-0.545-1.55c-0.338-0.755-0.479-1.625-0.557-2.441c-0.088-0.932,0.035-1.89,0.306-2.782
		c0.109-0.363,0.681-1.071,0.54-1.429C183.12,153.227,182.579,153.452,182.493,153.493L182.493,153.493z"/>
	<path fill="#382800" d="M186.238,153.493c-2.701,1.281-3.103,7.771,0.294,8.308c0.127,0.02,0.626-0.053,0.649-0.22
		c0.085-0.613-0.304-1.011-0.545-1.55c-0.338-0.755-0.479-1.625-0.557-2.441c-0.088-0.932,0.035-1.89,0.306-2.782
		c0.109-0.363,0.681-1.071,0.54-1.429C186.865,153.227,186.323,153.452,186.238,153.493L186.238,153.493z"/>
	<path fill="#382800" d="M189.981,153.493c-2.701,1.281-3.104,7.771,0.294,8.308c0.127,0.02,0.626-0.053,0.649-0.22
		c0.085-0.613-0.304-1.011-0.546-1.55c-0.338-0.755-0.479-1.625-0.556-2.441c-0.088-0.932,0.035-1.89,0.305-2.782
		c0.11-0.363,0.682-1.071,0.54-1.429C190.609,153.227,190.067,153.452,189.981,153.493L189.981,153.493z"/>
	<path fill="#382800" d="M193.725,153.493c-2.701,1.281-3.104,7.771,0.294,8.308c0.127,0.02,0.626-0.053,0.648-0.22
		c0.085-0.613-0.303-1.011-0.545-1.55c-0.338-0.755-0.479-1.625-0.556-2.441c-0.088-0.932,0.035-1.89,0.305-2.782
		c0.11-0.363,0.682-1.071,0.54-1.429C194.352,153.227,193.811,153.452,193.725,153.493L193.725,153.493z"/>
	<path fill="#382800" d="M197.469,153.493c-2.701,1.281-3.104,7.771,0.294,8.308c0.127,0.02,0.626-0.053,0.648-0.22
		c0.085-0.613-0.303-1.011-0.545-1.55c-0.338-0.755-0.479-1.625-0.556-2.441c-0.088-0.932,0.035-1.89,0.305-2.782
		c0.11-0.363,0.681-1.071,0.54-1.429C198.096,153.227,197.555,153.452,197.469,153.493L197.469,153.493z"/>
	<path fill="#382800" d="M201.211,153.493c-2.7,1.281-3.103,7.771,0.295,8.308c0.127,0.02,0.626-0.053,0.648-0.22
		c0.085-0.613-0.303-1.011-0.545-1.55c-0.338-0.755-0.479-1.625-0.556-2.441c-0.088-0.932,0.035-1.89,0.305-2.782
		c0.11-0.363,0.681-1.071,0.54-1.429C201.84,153.227,201.298,153.452,201.211,153.493L201.211,153.493z"/>
	<path fill="#382800" d="M204.955,153.493c-2.701,1.281-3.103,7.771,0.294,8.308c0.127,0.02,0.626-0.053,0.649-0.22
		c0.085-0.613-0.303-1.011-0.545-1.55c-0.338-0.755-0.479-1.625-0.556-2.441c-0.089-0.932,0.034-1.89,0.305-2.782
		c0.109-0.363,0.681-1.071,0.54-1.429C205.582,153.227,205.041,153.452,204.955,153.493L204.955,153.493z"/>
	<path fill="#382800" d="M208.699,153.493c-2.701,1.281-3.103,7.771,0.294,8.308c0.127,0.02,0.626-0.053,0.649-0.22
		c0.085-0.613-0.303-1.011-0.545-1.55c-0.338-0.755-0.479-1.625-0.557-2.441c-0.088-0.932,0.035-1.89,0.306-2.782
		c0.109-0.363,0.681-1.071,0.54-1.429C209.326,153.227,208.785,153.452,208.699,153.493L208.699,153.493z"/>
	<path fill="#382800" d="M212.443,153.493c-2.701,1.281-3.103,7.771,0.294,8.308c0.127,0.02,0.626-0.053,0.649-0.22
		c0.085-0.613-0.304-1.011-0.545-1.55c-0.339-0.755-0.479-1.625-0.557-2.441c-0.088-0.932,0.035-1.89,0.306-2.782
		c0.109-0.363,0.681-1.071,0.539-1.429C213.071,153.227,212.529,153.452,212.443,153.493L212.443,153.493z"/>
	<path fill="#382800" d="M216.187,153.493c-2.701,1.281-3.104,7.771,0.294,8.308c0.127,0.02,0.626-0.053,0.648-0.22
		c0.086-0.613-0.303-1.011-0.545-1.55c-0.338-0.755-0.479-1.625-0.556-2.441c-0.088-0.932,0.035-1.89,0.305-2.782
		c0.11-0.363,0.682-1.071,0.54-1.429C216.814,153.227,216.273,153.452,216.187,153.493L216.187,153.493z"/>
	<path fill="#382800" d="M219.931,153.493c-2.701,1.281-3.104,7.771,0.294,8.308c0.127,0.02,0.626-0.053,0.648-0.22
		c0.085-0.613-0.303-1.011-0.545-1.55c-0.338-0.755-0.479-1.625-0.556-2.441c-0.088-0.932,0.035-1.89,0.305-2.782
		c0.11-0.363,0.682-1.071,0.54-1.429C220.558,153.227,220.016,153.452,219.931,153.493L219.931,153.493z"/>
	<path fill="#382800" d="M223.674,153.493c-2.701,1.281-3.104,7.771,0.294,8.308c0.127,0.02,0.626-0.053,0.648-0.22
		c0.085-0.613-0.303-1.011-0.545-1.55c-0.338-0.755-0.479-1.625-0.556-2.441c-0.088-0.932,0.035-1.89,0.305-2.782
		c0.11-0.363,0.681-1.071,0.54-1.429C224.302,153.227,223.76,153.452,223.674,153.493L223.674,153.493z"/>
	<path fill="#382800" d="M227.417,153.493c-2.7,1.281-3.103,7.771,0.294,8.308c0.127,0.02,0.626-0.053,0.649-0.22
		c0.085-0.613-0.303-1.011-0.545-1.55c-0.338-0.755-0.479-1.625-0.556-2.441c-0.089-0.932,0.034-1.89,0.305-2.782
		c0.11-0.363,0.681-1.071,0.54-1.429C228.044,153.227,227.503,153.452,227.417,153.493L227.417,153.493z"/>
	<path fill="#382800" d="M231.16,153.493c-2.701,1.281-3.103,7.771,0.294,8.308c0.127,0.02,0.626-0.053,0.649-0.22
		c0.085-0.613-0.303-1.011-0.545-1.55c-0.338-0.755-0.479-1.625-0.557-2.441c-0.088-0.932,0.035-1.89,0.306-2.782
		c0.109-0.363,0.681-1.071,0.54-1.429C231.788,153.227,231.246,153.452,231.16,153.493L231.16,153.493z"/>
	<path fill="#382800" d="M234.905,153.493c-2.701,1.281-3.103,7.771,0.294,8.308c0.127,0.02,0.626-0.053,0.649-0.22
		c0.085-0.613-0.304-1.011-0.545-1.55c-0.338-0.755-0.479-1.625-0.557-2.441c-0.088-0.932,0.035-1.89,0.306-2.782
		c0.109-0.363,0.681-1.071,0.54-1.429C235.532,153.227,234.99,153.452,234.905,153.493L234.905,153.493z"/>
	<path fill="#382800" d="M238.709,153.493c-2.7,1.281-3.103,7.771,0.294,8.308c0.128,0.02,0.626-0.053,0.649-0.22
		c0.085-0.613-0.303-1.011-0.545-1.55c-0.338-0.755-0.479-1.625-0.556-2.441c-0.088-0.932,0.034-1.89,0.305-2.782
		c0.11-0.363,0.681-1.071,0.54-1.429C239.337,153.227,238.795,153.452,238.709,153.493L238.709,153.493z"/>
	<path fill="#382800" d="M242.515,153.493c-2.701,1.281-3.104,7.771,0.294,8.308c0.127,0.02,0.626-0.053,0.648-0.22
		c0.085-0.613-0.303-1.011-0.545-1.55c-0.338-0.755-0.479-1.625-0.556-2.441c-0.088-0.932,0.035-1.89,0.305-2.782
		c0.11-0.363,0.682-1.071,0.54-1.429C243.143,153.227,242.601,153.452,242.515,153.493L242.515,153.493z"/>
	<path fill="#382800" d="M246.321,153.493c-2.701,1.281-3.103,7.771,0.294,8.308c0.127,0.02,0.626-0.053,0.649-0.22
		c0.085-0.613-0.304-1.011-0.545-1.55c-0.338-0.755-0.479-1.625-0.557-2.441c-0.088-0.932,0.035-1.89,0.306-2.782
		c0.109-0.363,0.681-1.071,0.54-1.429C246.948,153.227,246.406,153.452,246.321,153.493L246.321,153.493z"/>
	<path fill="#382800" d="M354.133,153.493c2.701,1.281,3.104,7.771-0.294,8.308c-0.128,0.02-0.627-0.053-0.648-0.22
		c-0.086-0.613,0.303-1.011,0.545-1.55c0.338-0.755,0.479-1.625,0.559-2.441c0.088-0.932-0.034-1.89-0.308-2.782
		c-0.107-0.363-0.683-1.071-0.54-1.429C353.506,153.227,354.047,153.452,354.133,153.493L354.133,153.493z"/>
	<path fill="#382800" d="M357.481,153.493c2.7,1.281,3.104,7.771-0.294,8.308c-0.128,0.02-0.627-0.053-0.646-0.22
		c-0.088-0.613,0.303-1.011,0.545-1.55c0.338-0.755,0.479-1.625,0.557-2.441c0.088-0.932-0.034-1.89-0.306-2.782
		c-0.109-0.363-0.685-1.071-0.54-1.429C356.854,153.227,357.395,153.452,357.481,153.493L357.481,153.493z"/>
	<path fill="#382800" d="M350.39,153.493c2.701,1.281,3.104,7.771-0.295,8.308c-0.127,0.02-0.626-0.053-0.648-0.22
		c-0.085-0.613,0.306-1.011,0.545-1.55c0.341-0.755,0.479-1.625,0.56-2.441c0.089-0.932-0.034-1.89-0.306-2.782
		c-0.11-0.363-0.684-1.071-0.539-1.429C349.762,153.227,350.304,153.452,350.39,153.493L350.39,153.493z"/>
	<path fill="#382800" d="M346.647,153.493c2.7,1.281,3.104,7.771-0.294,8.308c-0.129,0.02-0.627-0.053-0.646-0.22
		c-0.089-0.613,0.303-1.011,0.545-1.55c0.338-0.755,0.479-1.625,0.557-2.441c0.088-0.932-0.034-1.89-0.306-2.782
		c-0.109-0.363-0.685-1.071-0.54-1.429C346.02,153.227,346.561,153.452,346.647,153.493L346.647,153.493z"/>
	<path fill="#382800" d="M342.904,153.493c2.701,1.281,3.104,7.771-0.295,8.308c-0.127,0.02-0.626-0.053-0.646-0.22
		c-0.085-0.613,0.303-1.011,0.545-1.55c0.338-0.755,0.479-1.625,0.558-2.441c0.088-0.932-0.035-1.89-0.307-2.782
		c-0.109-0.363-0.684-1.071-0.539-1.429C342.276,153.227,342.818,153.452,342.904,153.493L342.904,153.493z"/>
	<path fill="#382800" d="M339.159,153.493c2.701,1.281,3.104,7.771-0.294,8.308c-0.128,0.02-0.627-0.053-0.646-0.22
		c-0.086-0.613,0.304-1.011,0.546-1.55c0.338-0.755,0.479-1.625,0.556-2.441c0.088-0.932-0.033-1.89-0.306-2.782
		c-0.109-0.363-0.682-1.071-0.539-1.429C338.532,153.227,339.073,153.452,339.159,153.493L339.159,153.493z"/>
	<path fill="#382800" d="M335.415,153.493c2.698,1.281,3.104,7.771-0.295,8.308c-0.13,0.02-0.626-0.053-0.648-0.22
		c-0.086-0.613,0.303-1.011,0.545-1.55c0.338-0.755,0.479-1.625,0.557-2.441c0.091-0.932-0.032-1.89-0.306-2.782
		c-0.11-0.363-0.682-1.071-0.539-1.429C334.787,153.227,335.329,153.452,335.415,153.493L335.415,153.493z"/>
	<path fill="#382800" d="M331.671,153.493c2.701,1.281,3.104,7.771-0.294,8.308c-0.128,0.02-0.627-0.053-0.648-0.22
		c-0.086-0.613,0.303-1.011,0.545-1.55c0.338-0.755,0.479-1.625,0.559-2.441c0.088-0.932-0.034-1.89-0.308-2.782
		c-0.107-0.363-0.683-1.071-0.54-1.429C331.044,153.227,331.585,153.452,331.671,153.493L331.671,153.493z"/>
	<path fill="#382800" d="M327.928,153.493c2.701,1.281,3.104,7.771-0.295,8.308c-0.127,0.02-0.626-0.053-0.648-0.22
		c-0.085-0.613,0.306-1.011,0.545-1.55c0.339-0.755,0.479-1.625,0.56-2.441c0.088-0.932-0.035-1.89-0.309-2.782
		c-0.107-0.363-0.681-1.071-0.539-1.429C327.3,153.227,327.842,153.452,327.928,153.493L327.928,153.493z"/>
	<path fill="#382800" d="M324.185,153.493c2.7,1.281,3.104,7.771-0.295,8.308c-0.127,0.02-0.627-0.053-0.648-0.22
		c-0.086-0.613,0.306-1.011,0.548-1.55c0.338-0.755,0.479-1.625,0.556-2.441c0.089-0.932-0.033-1.89-0.305-2.782
		c-0.109-0.363-0.685-1.071-0.54-1.429C323.558,153.227,324.099,153.452,324.185,153.493L324.185,153.493z"/>
	<path fill="#382800" d="M320.442,153.493c2.701,1.281,3.104,7.771-0.295,8.308c-0.127,0.02-0.626-0.053-0.646-0.22
		c-0.085-0.613,0.303-1.011,0.545-1.55c0.338-0.755,0.479-1.625,0.558-2.441c0.088-0.932-0.035-1.89-0.307-2.782
		c-0.109-0.363-0.684-1.071-0.539-1.429C319.814,153.227,320.356,153.452,320.442,153.493L320.442,153.493z"/>
	<path fill="#382800" d="M316.698,153.493c2.701,1.281,3.104,7.771-0.294,8.308c-0.128,0.02-0.627-0.053-0.646-0.22
		c-0.086-0.613,0.304-1.011,0.545-1.55c0.339-0.755,0.479-1.625,0.557-2.441c0.088-0.932-0.034-1.89-0.305-2.782
		c-0.11-0.363-0.683-1.071-0.541-1.429C316.071,153.227,316.612,153.452,316.698,153.493L316.698,153.493z"/>
	<path fill="#382800" d="M312.953,153.493c2.698,1.281,3.103,7.771-0.298,8.308c-0.127,0.02-0.626-0.053-0.646-0.22
		c-0.085-0.613,0.304-1.011,0.545-1.55c0.339-0.755,0.479-1.625,0.558-2.441c0.088-0.932-0.032-1.89-0.306-2.782
		c-0.11-0.363-0.682-1.071-0.539-1.429C312.327,153.227,312.868,153.452,312.953,153.493L312.953,153.493z"/>
	<path fill="#382800" d="M309.209,153.493c2.701,1.281,3.104,7.771-0.294,8.308c-0.128,0.02-0.627-0.053-0.648-0.22
		c-0.086-0.613,0.303-1.011,0.545-1.55c0.338-0.755,0.479-1.625,0.559-2.441c0.088-0.932-0.034-1.89-0.308-2.782
		c-0.107-0.363-0.683-1.071-0.54-1.429C308.582,153.227,309.123,153.452,309.209,153.493L309.209,153.493z"/>
	<path fill="#382800" d="M305.466,153.493c2.701,1.281,3.104,7.771-0.295,8.308c-0.127,0.02-0.626-0.053-0.648-0.22
		c-0.085-0.613,0.303-1.011,0.545-1.55c0.338-0.755,0.479-1.625,0.56-2.441c0.088-0.932-0.035-1.89-0.309-2.782
		c-0.107-0.363-0.681-1.071-0.539-1.429C304.838,153.227,305.38,153.452,305.466,153.493L305.466,153.493z"/>
	<path fill="#382800" d="M301.722,153.493c2.701,1.281,3.104,7.771-0.294,8.308c-0.128,0.02-0.627-0.053-0.648-0.22
		c-0.086-0.613,0.306-1.011,0.545-1.55c0.341-0.755,0.479-1.625,0.559-2.441c0.089-0.932-0.033-1.89-0.308-2.782
		c-0.107-0.363-0.682-1.071-0.537-1.429C301.095,153.227,301.636,153.452,301.722,153.493L301.722,153.493z"/>
	<path fill="#382800" d="M297.98,153.493c2.701,1.281,3.104,7.771-0.295,8.308c-0.127,0.02-0.626-0.053-0.648-0.22
		c-0.086-0.613,0.306-1.011,0.545-1.55c0.338-0.755,0.479-1.625,0.56-2.441c0.088-0.932-0.035-1.89-0.31-2.782
		c-0.106-0.363-0.68-1.071-0.539-1.429C297.352,153.227,297.894,153.452,297.98,153.493L297.98,153.493z"/>
	<path fill="#382800" d="M294.236,153.493c2.701,1.281,3.104,7.771-0.294,8.308c-0.128,0.02-0.627-0.053-0.649-0.22
		c-0.086-0.613,0.307-1.011,0.549-1.55c0.338-0.755,0.479-1.625,0.556-2.441c0.088-0.932-0.031-1.89-0.305-2.782
		c-0.11-0.363-0.685-1.071-0.54-1.429C293.609,153.227,294.15,153.452,294.236,153.493L294.236,153.493z"/>
	<path fill="#382800" d="M290.493,153.493c2.701,1.281,3.104,7.771-0.295,8.308c-0.127,0.02-0.627-0.053-0.646-0.22
		c-0.085-0.613,0.303-1.011,0.545-1.55c0.338-0.755,0.479-1.625,0.56-2.441c0.088-0.932-0.035-1.89-0.309-2.782
		c-0.107-0.363-0.685-1.071-0.539-1.429C289.865,153.227,290.407,153.452,290.493,153.493L290.493,153.493z"/>
	<path fill="#382800" d="M286.746,153.493c2.701,1.281,3.104,7.771-0.293,8.308c-0.129,0.02-0.627-0.053-0.648-0.22
		c-0.086-0.613,0.303-1.011,0.545-1.55c0.338-0.755,0.479-1.625,0.556-2.441c0.088-0.932-0.033-1.89-0.305-2.782
		c-0.109-0.363-0.683-1.071-0.54-1.429C286.119,153.227,286.66,153.452,286.746,153.493L286.746,153.493z"/>
	<path fill="#382800" d="M283.004,153.493c2.701,1.281,3.104,7.771-0.295,8.308c-0.127,0.02-0.627-0.053-0.648-0.22
		c-0.085-0.613,0.304-1.011,0.545-1.55c0.339-0.755,0.479-1.625,0.558-2.441c0.088-0.932-0.032-1.89-0.307-2.782
		c-0.109-0.363-0.681-1.071-0.539-1.429C282.375,153.227,282.918,153.452,283.004,153.493L283.004,153.493z"/>
	<path fill="#382800" d="M279.261,153.493c2.7,1.281,3.104,7.771-0.294,8.308c-0.129,0.02-0.628-0.053-0.649-0.22
		c-0.086-0.613,0.303-1.011,0.545-1.55c0.338-0.755,0.479-1.625,0.559-2.441c0.089-0.932-0.033-1.89-0.307-2.782
		c-0.107-0.363-0.683-1.071-0.541-1.429C278.634,153.227,279.175,153.452,279.261,153.493L279.261,153.493z"/>
	<path fill="#382800" d="M275.518,153.493c2.701,1.281,3.103,7.771-0.295,8.308c-0.127,0.02-0.626-0.053-0.649-0.22
		c-0.084-0.613,0.303-1.011,0.545-1.55c0.338-0.755,0.479-1.625,0.561-2.441c0.088-0.932-0.035-1.89-0.309-2.782
		c-0.107-0.363-0.682-1.071-0.539-1.429C274.89,153.227,275.432,153.452,275.518,153.493L275.518,153.493z"/>
	<path fill="#382800" d="M271.774,153.493c2.701,1.281,3.103,7.771-0.294,8.308c-0.128,0.02-0.627-0.053-0.648-0.22
		c-0.086-0.613,0.306-1.011,0.545-1.55c0.341-0.755,0.479-1.625,0.559-2.441c0.088-0.932-0.034-1.89-0.309-2.782
		c-0.106-0.363-0.682-1.071-0.536-1.429C271.147,153.227,271.688,153.452,271.774,153.493L271.774,153.493z"/>
	<path fill="#382800" d="M268.031,153.493c2.701,1.281,3.104,7.771-0.295,8.308c-0.127,0.02-0.626-0.053-0.648-0.22
		c-0.086-0.613,0.306-1.011,0.548-1.55c0.338-0.755,0.479-1.625,0.557-2.441c0.09-0.932-0.033-1.89-0.306-2.782
		c-0.11-0.363-0.684-1.071-0.539-1.429C267.404,153.227,267.945,153.452,268.031,153.493L268.031,153.493z"/>
	<path fill="#382800" d="M264.285,153.493c2.701,1.281,3.104,7.771-0.295,8.308c-0.127,0.02-0.627-0.053-0.647-0.22
		c-0.087-0.613,0.303-1.011,0.545-1.55c0.338-0.755,0.479-1.625,0.557-2.441c0.088-0.932-0.035-1.89-0.306-2.782
		c-0.11-0.363-0.684-1.071-0.54-1.429C263.659,153.227,264.2,153.452,264.285,153.493L264.285,153.493z"/>
	<path fill="#382800" d="M260.482,153.493c2.701,1.281,3.104,7.771-0.295,8.308c-0.127,0.02-0.626-0.053-0.648-0.22
		c-0.086-0.613,0.307-1.011,0.545-1.55c0.342-0.755,0.479-1.625,0.56-2.441c0.088-0.932-0.034-1.89-0.31-2.782
		c-0.105-0.363-0.68-1.071-0.539-1.429C259.855,153.227,260.396,153.452,260.482,153.493L260.482,153.493z"/>
	<path fill="#382800" d="M256.677,153.493c2.7,1.281,3.102,7.771-0.296,8.308c-0.127,0.02-0.627-0.053-0.648-0.22
		c-0.085-0.613,0.304-1.011,0.546-1.55c0.338-0.755,0.479-1.625,0.555-2.441c0.092-0.932-0.03-1.89-0.305-2.782
		c-0.109-0.363-0.682-1.071-0.539-1.429C256.049,153.227,256.591,153.452,256.677,153.493L256.677,153.493z"/>
	<path fill="#382800" d="M252.869,153.493c2.701,1.281,3.104,7.771-0.293,8.308c-0.129,0.02-0.627-0.053-0.649-0.22
		c-0.085-0.613,0.303-1.011,0.545-1.55c0.338-0.755,0.479-1.625,0.557-2.441c0.088-0.932-0.035-1.89-0.305-2.782
		c-0.111-0.363-0.683-1.071-0.54-1.429C252.243,153.227,252.785,153.452,252.869,153.493L252.869,153.493z"/>
	<path fill="#382800" d="M246.938,136.223c-1.188,0.009-2.473,0.219-3.566,0.691c-0.521,0.226-3.184,1.829-2.505,2.469
		c0.235,0.221,1.362-0.03,1.625-0.165c0.882-0.452,1.404-1.358,2.206-1.951c0.685-0.504,1.444-0.721,2.255-0.92
		C247.212,136.283,247.212,136.221,246.938,136.223L246.938,136.223z"/>
	<path fill="#382800" d="M245.406,139.522c-0.133-0.178-1.048,0.122-1.16,0.165c-0.681,0.256-1.342,0.566-1.977,0.924
		c-0.433,0.244-0.854,0.516-1.236,0.831c-0.37,0.303-0.726,0.589-0.707,1.114c0.012,0.338,0.31,0.408,0.591,0.343
		c0.37-0.086,0.655-0.271,0.949-0.507c0.714-0.579,1.326-1.275,2.062-1.83c0.252-0.19,0.518-0.361,0.79-0.521
		c0.182-0.105,0.53-0.149,0.649-0.329C245.427,139.622,245.434,139.562,245.406,139.522z"/>
	<path fill="#382800" d="M240.987,136.997c-0.202-0.265-1.466,0.238-1.644,0.313c-0.719,0.298-1.395,0.689-2.039,1.122
		c-0.623,0.415-1.219,0.894-1.733,1.438c-0.269,0.285-0.525,0.595-0.701,0.947c-0.164,0.329-0.339,0.662-0.044,0.975
		c0.561,0.598,1.592-0.69,1.918-1.063c0.586-0.669,1.104-1.406,1.771-2c0.385-0.343,0.84-0.595,1.289-0.844
		c0.226-0.126,0.454-0.251,0.674-0.389c0.131-0.081,0.528-0.242,0.539-0.398C241.015,137.055,241.005,137.022,240.987,136.997z"/>
	<path fill="#382800" d="M239.387,140.336c-0.638,0.156-1.164,0.595-1.619,1.045c-0.488,0.482-0.943,0.983-1.358,1.527
		c-0.224,0.294-0.451,0.587-0.665,0.889c-0.223,0.317-0.39,0.67-0.605,0.987c-0.224,0.325-0.381,1,0.11,1.204
		c0.354,0.146,0.585-0.177,0.764-0.427c0.197-0.28,0.361-0.598,0.552-0.894c0.159-0.25,0.335-0.487,0.478-0.751
		c0.171-0.317,0.374-0.608,0.544-0.927c0.277-0.516,0.68-0.947,1.091-1.358c0.212-0.212,0.428-0.42,0.635-0.637
		c0.119-0.125,0.305-0.242,0.354-0.417C239.74,140.321,239.587,140.288,239.387,140.336z"/>
	<path fill="#382800" d="M238.893,144.116c-0.239,0.014-0.515,0.332-0.668,0.489c-0.196,0.199-0.381,0.424-0.543,0.651
		c-0.293,0.413-1.189,1.677-0.141,1.821c0.809,0.11,1.268-0.832,1.396-1.479c0.04-0.199,0.074-0.354,0.142-0.542
		c0.077-0.208,0.134-0.474,0.074-0.692C239.12,144.249,239.058,144.122,238.893,144.116z"/>
	<path fill="#382800" d="M234.186,143.875c-0.064-0.312-0.521,0.18-0.603,0.25c-0.5,0.439-0.901,0.956-1.265,1.506
		c-0.226,0.343-1.709,2.446-1.308,2.701c0.154,0.099,1.021-0.03,1.171-0.137c0.302-0.21,0.332-0.73,0.45-1.073
		c0.173-0.499,0.418-0.976,0.67-1.437c0.181-0.331,0.354-0.665,0.545-0.991C233.982,144.469,234.243,144.159,234.186,143.875z"/>
	<path fill="#382800" d="M234.776,147.959c-0.111,0.069-0.209,0.151-0.274,0.219c-0.32,0.328-0.556,0.795-0.728,1.219
		c-0.149,0.364-0.305,0.754-0.219,1.152c0.054,0.252,0.229,0.549,0.51,0.591c0.126,0.02,0.258,0.015,0.381-0.011
		c0.992-0.199,0.999-1.53,1.1-2.309c0.03-0.231,0.054-0.635-0.079-0.84C235.302,147.729,235.01,147.815,234.776,147.959z"/>
	<path fill="#382800" d="M252.252,136.223c1.188,0.009,2.475,0.219,3.566,0.691c0.521,0.226,3.186,1.829,2.506,2.469
		c-0.233,0.221-1.362-0.03-1.625-0.165c-0.885-0.452-1.404-1.358-2.205-1.951c-0.688-0.504-1.444-0.721-2.256-0.92
		C251.98,136.283,251.979,136.221,252.252,136.223L252.252,136.223z"/>
	<path fill="#382800" d="M253.785,139.522c0.133-0.178,1.047,0.122,1.16,0.165c0.68,0.256,1.342,0.566,1.977,0.924
		c0.433,0.244,0.853,0.516,1.236,0.831c0.369,0.303,0.727,0.589,0.705,1.114c-0.015,0.338-0.311,0.408-0.593,0.343
		c-0.368-0.086-0.653-0.271-0.946-0.507c-0.717-0.579-1.326-1.275-2.063-1.83c-0.252-0.19-0.521-0.361-0.789-0.521
		c-0.186-0.105-0.531-0.149-0.647-0.329C253.765,139.622,253.757,139.562,253.785,139.522z"/>
	<path fill="#382800" d="M258.203,136.997c0.203-0.265,1.467,0.238,1.646,0.313c0.719,0.298,1.395,0.689,2.04,1.122
		c0.623,0.415,1.218,0.894,1.732,1.438c0.27,0.285,0.522,0.595,0.701,0.947c0.164,0.329,0.338,0.662,0.043,0.975
		c-0.562,0.598-1.594-0.69-1.918-1.063c-0.586-0.669-1.104-1.406-1.771-2c-0.388-0.343-0.841-0.595-1.288-0.844
		c-0.229-0.126-0.454-0.251-0.675-0.389c-0.132-0.081-0.528-0.242-0.537-0.398C258.177,137.055,258.187,137.022,258.203,136.997z"/>
	<path fill="#382800" d="M259.805,140.336c0.637,0.156,1.164,0.595,1.619,1.045c0.486,0.482,0.941,0.983,1.357,1.527
		c0.224,0.294,0.448,0.587,0.664,0.889c0.223,0.317,0.389,0.67,0.604,0.987c0.223,0.325,0.381,1-0.111,1.204
		c-0.354,0.146-0.585-0.177-0.763-0.427c-0.198-0.28-0.362-0.598-0.555-0.894c-0.156-0.25-0.336-0.487-0.479-0.751
		c-0.171-0.317-0.374-0.608-0.544-0.927c-0.276-0.516-0.682-0.947-1.091-1.358c-0.213-0.212-0.429-0.42-0.636-0.637
		c-0.118-0.125-0.305-0.242-0.354-0.417C259.452,140.321,259.605,140.288,259.805,140.336z"/>
	<path fill="#382800" d="M260.299,144.116c0.238,0.014,0.515,0.332,0.669,0.489c0.194,0.199,0.381,0.424,0.543,0.651
		c0.294,0.413,1.188,1.677,0.141,1.821c-0.808,0.11-1.268-0.832-1.396-1.479c-0.039-0.199-0.073-0.354-0.144-0.542
		c-0.076-0.208-0.136-0.474-0.074-0.692C260.072,144.249,260.134,144.122,260.299,144.116z"/>
	<path fill="#382800" d="M265.005,143.875c0.063-0.312,0.521,0.18,0.603,0.25c0.5,0.439,0.901,0.956,1.265,1.506
		c0.229,0.343,1.709,2.446,1.312,2.701c-0.152,0.099-1.021-0.03-1.171-0.137c-0.307-0.21-0.332-0.73-0.45-1.073
		c-0.173-0.499-0.418-0.976-0.671-1.437c-0.184-0.331-0.354-0.665-0.545-0.991C265.209,144.469,264.948,144.159,265.005,143.875z"/>
	<path fill="#382800" d="M264.414,147.959c0.109,0.069,0.209,0.151,0.272,0.219c0.32,0.328,0.558,0.795,0.729,1.219
		c0.147,0.364,0.307,0.754,0.222,1.152c-0.056,0.252-0.229,0.549-0.511,0.591c-0.127,0.02-0.26,0.015-0.383-0.011
		c-0.992-0.199-0.998-1.53-1.102-2.309c-0.027-0.231-0.055-0.635,0.079-0.84C263.89,147.729,264.183,147.815,264.414,147.959z"/>
	<path fill="#382800" d="M268.669,152.283c-0.647-0.103-1.114-1.122-1.235-1.688c-0.08-0.386-0.051-0.915,0.336-1.141
		c0.771-0.45,1.207,0.992,1.38,1.502C269.324,151.458,269.52,152.418,268.669,152.283z"/>
	<path fill="#382800" d="M230.137,150.957c0.173-0.511,0.606-1.952,1.38-1.502c0.387,0.226,0.416,0.754,0.336,1.141
		c-0.121,0.566-0.588,1.586-1.236,1.688C229.767,152.418,229.961,151.458,230.137,150.957z"/>
	<path fill="#382800" d="M251.032,159.825c-0.368-2.916-0.033-6.382-1.353-6.382s-0.984,3.466-1.354,6.382
		c-0.244,1.936,1.354,1.976,1.354,1.976S251.277,161.76,251.032,159.825z"/>
</g>
<rect id="position" x="0" y="0" display="none" fill="none" stroke="#382800" width="500" height="500"/>
</svg>
