<?xml version="1.0" encoding="utf-8"?>
<!-- Generator: Adobe Illustrator 14.0.0, SVG Export Plug-In . SVG Version: 6.00 Build 43363)  -->
<!DOCTYPE svg PUBLIC "-//W3C//DTD SVG 1.1//EN" "http://www.w3.org/Graphics/SVG/1.1/DTD/svg11.dtd">
<svg version="1.1" id="content" xmlns="http://www.w3.org/2000/svg" xmlns:xlink="http://www.w3.org/1999/xlink" x="0px" y="0px"
	 width="500px" height="500px" viewBox="0 0 500 500" enable-background="new 0 0 500 500" xml:space="preserve">
<g id="bounds">
	
		<rect x="120.299" y="0" fill="none" stroke="#000000" stroke-width="1.0056" stroke-miterlimit="10" width="259.438" height="259.438"/>
</g>
<g id="beard">
	<path fill="#382800" d="M359.518,158.952c-0.271-4.971-3.329-14.878-3.432-15.063c-7.527-26.203-27.646-48.099-54.481-60.583
		c0,0,44.006,34.015,44.006,64.15c0,7.063-8.711,5.651-15.304,5.651c-4.168,0-25.608,0-39.889,0
		c-0.526-2.667-1.805-5.535-2.533-6.937c-2.963-5.686-6.92-9.577-12.674-12.368c-8.312-4.031-16.937-3.542-25.646-3.401v-0.001
		c-8.714-0.141-17.34-0.631-25.651,3.401c-5.752,2.792-9.711,6.684-12.674,12.368c-0.729,1.4-2.004,4.27-2.533,6.937
		c-14.274,0-35.36,0-39.489,0c-6.592,0-15.304,1.413-15.304-5.651c0-30.136,44.007-64.15,44.007-64.15
		c-27.725,12.897-49.275,35.839-56.186,63.197c-1.535,3.954-1.986,8.224-2.216,12.448c-0.508,9.328,4.656,19.719,13.112,24.386
		c3.613,1.994,7.588,1.879,9.971,5.576c2.539,3.939,4.131,7.24,8.904,8.869c3.428,1.17,7.214,2.087,10.857,1.933
		c1.346-0.057,3.646-1.121,4.887-0.697c1.703,0.582,1.58,2.715,2.418,4.043c0.698,1.104,1.553,2.096,2.515,2.976
		c3.734,3.419,8.979,4.94,13.947,5.184c5.082,0.249,13.433-0.987,16.722-5.352c3.553,8.289,17.591,12.363,26.711,12.363
		c8.911,0,24.066-4.074,27.624-12.363c3.286,4.364,11.639,5.601,16.721,5.352c4.969-0.243,10.213-1.765,13.946-5.184
		c0.962-0.88,1.816-1.872,2.517-2.976c0.838-1.328,0.717-3.461,2.418-4.043c1.238-0.424,3.541,0.641,4.889,0.697
		c3.644,0.154,7.43-0.763,10.854-1.933c4.774-1.629,6.366-4.93,8.905-8.869c2.384-3.695,6.355-3.582,9.972-5.576
		C355.863,178.671,360.027,168.28,359.518,158.952z M268.784,153.221c-14.326,0-19.021,0-19.021,0s-4.694,0-19.021,0l-5.368-0.071
		c0.988-1.772,1.984-3.545,3.154-4.602c3.83-3.452,7.832-4.859,12.475-6.664c2.759-1.073,8.127-2.699,8.561-6.155
		c0.433,3.457,5.802,5.083,8.56,6.156c4.646,1.805,8.646,3.212,12.478,6.665c1.172,1.057,2.168,2.831,3.153,4.604L268.784,153.221z"
		/>
</g>
<path id="position" display="none" d="M499,1v498H1V1H499 M500,0H0v500h500V0L500,0z"/>
</svg>
