<?xml version="1.0" encoding="utf-8"?>
<!-- Generator: Adobe Illustrator 14.0.0, SVG Export Plug-In  -->
<!DOCTYPE svg PUBLIC "-//W3C//DTD SVG 1.1 Basic//EN" "http://www.w3.org/Graphics/SVG/1.1/DTD/svg11-basic.dtd" [
	<!ENTITY ns_flows "http://ns.adobe.com/Flows/1.0/">
]>
<svg version="1.1" baseProfile="basic"
	 xmlns="http://www.w3.org/2000/svg" xmlns:xlink="http://www.w3.org/1999/xlink" xmlns:a="http://ns.adobe.com/AdobeSVGViewerExtensions/3.0/"
	 x="0px" y="0px" width="500px" height="500px" viewBox="0.5 0.5 500 500" enable-background="new 0.5 0.5 500 500"
	 xml:space="preserve">
<defs>
</defs>
<rect x="0.5" y="0.5" display="none" fill="#FFFFFF" stroke="#000000" width="500.001" height="500"/>
<polygon display="none" fill="#F495BC" points="280.249,176.074 250.502,212.455 220.752,176.074 113.194,176.074 113.194,490.252 
	387.665,490.252 387.665,176.074 "/>
<line display="none" fill="none" stroke="#C9749B" x1="250.502" y1="212.455" x2="250.502" y2="490.252"/>
<circle display="none" fill="#FFFFFF" cx="268.461" cy="238.414" r="4.574"/>
<circle display="none" fill="#FFFFFF" cx="268.461" cy="268.062" r="4.574"/>
<circle display="none" fill="#FFFFFF" cx="268.461" cy="297.706" r="4.573"/>
<circle display="none" fill="#FFFFFF" cx="268.461" cy="327.352" r="4.573"/>
<circle display="none" fill="#FFFFFF" cx="268.461" cy="356.998" r="4.574"/>
<circle display="none" fill="#FFFFFF" cx="268.461" cy="386.642" r="4.572"/>
<circle display="none" fill="#FFFFFF" cx="268.461" cy="416.289" r="4.572"/>
<circle display="none" fill="#FFFFFF" cx="268.461" cy="445.936" r="4.572"/>
<path display="none" fill="#FFFFFF" d="M268.461,471.01c2.526,0,4.575,2.048,4.575,4.571c0,2.529-2.049,4.576-4.575,4.576
	c-2.525,0-4.574-2.047-4.574-4.576C263.887,473.058,265.936,471.01,268.461,471.01z"/>
<polygon display="none" fill="#F8BED6" stroke="#C9749B" stroke-width="0.8286" stroke-linejoin="round" points="167.43,255.369 
	167.43,282.486 185.501,300.337 203.567,282.486 203.567,255.369 "/>
<line display="none" fill="none" stroke="#C9749B" stroke-width="0.8286" stroke-linejoin="round" x1="203.567" y1="265.421" x2="167.43" y2="265.421"/>
<polygon display="none" fill="#CD80A3" points="250.502,212.455 250.502,220.83 292.715,236.412 299.661,176.035 284.754,176.035 
	"/>
<polygon display="none" fill="#CD80A3" points="250.502,212.455 250.502,220.83 208.29,236.412 201.341,176.035 216.25,176.035 "/>
<polygon display="none" fill="#F8BED6" points="250.502,212.455 287.163,225.122 293.194,176.035 280.249,176.035 "/>
<polygon display="none" fill="#F8BED6" points="250.502,212.455 213.84,225.122 207.805,176.035 220.754,176.035 "/>
<rect x="78.028" y="258.015" display="none" fill="#F8BED6" width="48.993" height="19.485"/>
<path display="none" fill="#F495BC" d="M78.028,258.943v-59.952c0-13.086,10.968-23.697,24.498-23.697l0,0
	c13.529,0,24.498,10.611,24.498,23.697v59.952H78.028z"/>
<circle display="none" fill="#FFFFFF" cx="115.701" cy="267.856" r="4.184"/>
<path fill="#9FBF3B" d="M211.72,90.569L184.249,50.62c-1.201-1.74-3.44-2.275-5.003-1.199c-1.565,1.077-1.862,3.362-0.664,5.103
	l27.593,40.12c1.251,1.702,3.507,2.171,5.038,1.045C212.742,94.565,212.97,92.274,211.72,90.569z"/>
</svg>
