<?xml version="1.0" encoding="utf-8"?>
<!-- Generator: Adobe Illustrator 14.0.0, SVG Export Plug-In . SVG Version: 6.00 Build 43363)  -->
<!DOCTYPE svg PUBLIC "-//W3C//DTD SVG 1.1//EN" "http://www.w3.org/Graphics/SVG/1.1/DTD/svg11.dtd">
<svg version="1.1" id="Layer_1" xmlns="http://www.w3.org/2000/svg" xmlns:xlink="http://www.w3.org/1999/xlink" x="0px" y="0px"
	 width="500px" height="500px" viewBox="0 0 500 500" enable-background="new 0 0 500 500" xml:space="preserve">
<g id="Background" display="none">
	<rect x="0" y="0" display="inline" fill="#FFFFFF" stroke="#000000" width="500.001" height="500"/>
</g>
<g id="Test_Shirt_Body" display="none">
	<polygon display="inline" fill="#F495BC" points="279.749,175.574 250.002,211.955 220.252,175.574 112.695,175.574 
		112.695,489.752 387.165,489.752 387.165,175.574 	"/>
	<line display="inline" fill="none" stroke="#C9749B" x1="250.002" y1="211.955" x2="250.002" y2="489.752"/>
	<circle display="inline" fill="#FFFFFF" cx="267.961" cy="237.914" r="4.574"/>
	<circle display="inline" fill="#FFFFFF" cx="267.961" cy="267.561" r="4.574"/>
	<circle display="inline" fill="#FFFFFF" cx="267.961" cy="297.206" r="4.573"/>
	<circle display="inline" fill="#FFFFFF" cx="267.961" cy="326.852" r="4.573"/>
	<circle display="inline" fill="#FFFFFF" cx="267.961" cy="356.498" r="4.574"/>
	<circle display="inline" fill="#FFFFFF" cx="267.961" cy="386.142" r="4.572"/>
	<circle display="inline" fill="#FFFFFF" cx="267.961" cy="415.789" r="4.572"/>
	<circle display="inline" fill="#FFFFFF" cx="267.961" cy="445.435" r="4.572"/>
	<path display="inline" fill="#FFFFFF" d="M267.961,470.51c2.526,0,4.575,2.048,4.575,4.571c0,2.529-2.049,4.576-4.575,4.576
		c-2.525,0-4.574-2.047-4.574-4.576C263.387,472.557,265.436,470.51,267.961,470.51z"/>
	<polygon display="inline" fill="#F8BED6" stroke="#C9749B" stroke-width="0.8286" stroke-linejoin="round" points="166.93,254.869 
		166.93,281.986 185.001,299.837 203.068,281.986 203.068,254.869 	"/>
	
		<line display="inline" fill="none" stroke="#C9749B" stroke-width="0.8286" stroke-linejoin="round" x1="203.068" y1="264.921" x2="166.93" y2="264.921"/>
	<polygon display="inline" fill="#CD80A3" points="250.002,211.955 250.002,220.33 292.215,235.912 299.161,175.535 
		284.254,175.535 	"/>
	<polygon display="inline" fill="#CD80A3" points="250.002,211.955 250.002,220.33 207.79,235.912 200.841,175.535 215.75,175.535 	
		"/>
	<polygon display="inline" fill="#F8BED6" points="250.002,211.955 286.663,224.622 292.695,175.535 279.749,175.535 	"/>
	<polygon display="inline" fill="#F8BED6" points="250.002,211.955 213.34,224.622 207.305,175.535 220.254,175.535 	"/>
</g>
<g id="Layer_4" display="none">
	<g display="inline">
		<rect x="77.529" y="257.514" fill="#F8BED6" width="48.993" height="19.485"/>
		<path fill="#F495BC" d="M77.529,258.443v-59.952c0-13.086,10.968-23.697,24.498-23.697l0,0c13.529,0,24.498,10.611,24.498,23.697
			v59.952H77.529z"/>
		<circle fill="#FFFFFF" cx="115.201" cy="267.356" r="4.184"/>
	</g>
</g>
<g>
	<path fill="#9FBF3B" d="M140.459,353.404c0,10.566,8.567,19.133,19.135,19.133h8.538h13.318h49.074h38.188h49.08h15.84h6.016
		c10.57,0,19.14-8.563,19.14-19.133V175.489H140.459V353.404z"/>
</g>
</svg>
