<?xml version="1.0" encoding="UTF-8" standalone="no"?>
<svg
   xmlns:dc="http://purl.org/dc/elements/1.1/"
   xmlns:cc="http://creativecommons.org/ns#"
   xmlns:rdf="http://www.w3.org/1999/02/22-rdf-syntax-ns#"
   xmlns:svg="http://www.w3.org/2000/svg"
   xmlns="http://www.w3.org/2000/svg"
   version="1.1"
   id="svg6941"
   viewBox="0 0 133.26758 54.52929"
   height="15.389378mm"
   width="37.611073mm">
  <defs
     id="defs6943" />
  <metadata
     id="metadata6946">
    <rdf:RDF>
      <cc:Work
         rdf:about="">
        <dc:format>image/svg+xml</dc:format>
        <dc:type
           rdf:resource="http://purl.org/dc/dcmitype/StillImage" />
        <dc:title></dc:title>
      </cc:Work>
    </rdf:RDF>
  </metadata>
  <g
     transform="translate(-309.58984,-406.4043)"
     id="layer1">
    <path
       id="mask0"
       d="m 310.58984,406.4043 c -0.554,0 -1,0.446 -1,1 l 0,52.52929 c 0,0.554 0.446,1 1,1 l 131.26758,0 c 0.554,0 1,-0.446 1,-1 l 0,-52.52929 c 0,-0.554 -0.446,-1 -1,-1 l -131.26758,0 z m 65.64454,12.84179 c 2.57812,0 4.55729,0.64454 5.9375,1.9336 1.3802,1.27604 2.07031,3.10547 2.07031,5.48828 0,1.71875 -0.44923,3.25521 -1.34766,4.60937 -0.88542,1.35417 -2.10937,2.78647 -3.67187,4.29688 -0.72917,0.70313 -1.16537,1.32813 -1.3086,1.875 -0.14323,0.54688 -0.21484,1.4323 -0.21484,2.65625 l -3.61328,0 c 0.013,-1.91406 0.16274,-3.21614 0.44922,-3.90625 0.29948,-0.6901 1.11328,-1.64062 2.4414,-2.85156 1.32812,-1.53646 2.26562,-2.71485 2.8125,-3.53516 0.54688,-0.82031 0.82031,-1.83594 0.82032,-3.04688 0,-1.44531 -0.3711,-2.53906 -1.11329,-3.28124 -0.74218,-0.74219 -1.82942,-1.11329 -3.26171,-1.11329 -1.26303,0 -2.3112,0.33204 -3.14454,0.9961 -0.83333,0.65104 -1.25,1.6276 -1.25,2.92969 l -3.63281,0 c 0.0261,-2.20053 0.77477,-3.92579 2.24609,-5.17579 1.48438,-1.25 3.41146,-1.875 5.78126,-1.875 z m -2.20704,24.88282 3.82813,0 0,3.96484 -3.82813,0 0,-3.96484 z"
       style="color:#000000;clip-rule:nonzero;display:inline;overflow:visible;visibility:visible;opacity:1;isolation:auto;mix-blend-mode:normal;color-interpolation:sRGB;color-interpolation-filters:linearRGB;solid-color:#000000;solid-opacity:1;fill:#bfbfbf;fill-opacity:1;fill-rule:nonzero;stroke:none;stroke-width:0.31353924;stroke-linecap:butt;stroke-linejoin:miter;stroke-miterlimit:4;stroke-dasharray:none;stroke-dashoffset:0;stroke-opacity:0;color-rendering:auto;image-rendering:auto;shape-rendering:auto;text-rendering:auto;enable-background:accumulate" />
  </g>
</svg>
