<?xml version="1.0" encoding="utf-8"?>
<!-- Generator: Adobe Illustrator 13.0.0, SVG Export Plug-In . SVG Version: 6.00 Build 14948)  -->
<!DOCTYPE svg PUBLIC "-//W3C//DTD SVG 1.1//EN" "http://www.w3.org/Graphics/SVG/1.1/DTD/svg11.dtd">
<svg version="1.1" id="content" xmlns="http://www.w3.org/2000/svg" xmlns:xlink="http://www.w3.org/1999/xlink" x="0px" y="0px"
	 width="500px" height="500px" viewBox="0 0 500 500" enable-background="new 0 0 500 500" xml:space="preserve">
<g id="bounds" display="none">
	
		<rect x="133.902" y="5" display="inline" fill="none" stroke="#000000" stroke-width="1.2059" stroke-miterlimit="10" width="231.315" height="231.316"/>
</g>
<g id="glasses">
	<path opacity="0.4" fill="#FFFFFF" enable-background="new    " d="M335.016,118.215c-0.503,5.451-1.885,12.411-2.707,15.155
		c-0.855,2.893-2.36,7.101-7.044,11.125c-4.157,3.576-9.752,7.104-17.811,8.108c-7.448,0.929-16.765,0.924-22.406-0.743
		c-7.315-2.158-11.53-6.686-14.729-11.282c-2.104-3.017-4.758-7.641-6.786-12.613c-1.265-3.104-2.121-6.477-2.908-9.274
		l-3.771-14.407l23.357-11.941h36.083l15.836,5.452l2.888,8.86C335.016,106.653,335.048,117.789,335.016,118.215z"/>
	<path opacity="0.4" fill="#FFFFFF" enable-background="new    " d="M164.036,106.653l2.888-8.86l15.836-5.452h36.083l23.363,11.942
		l-3.775,14.407c-0.787,2.798-1.646,6.171-2.908,9.274c-2.029,4.974-4.687,9.598-6.787,12.613
		c-3.197,4.597-7.414,9.124-14.73,11.282c-5.645,1.667-14.958,1.672-22.408,0.743c-8.057-1.006-13.647-4.533-17.809-8.108
		c-4.681-4.024-6.186-8.232-7.045-11.125c-0.82-2.744-2.203-9.705-2.706-15.155C164.005,117.789,164.036,106.653,164.036,106.653z"
		/>
	<path fill="#010101" d="M159.885,102.579c-2.461,0-4.452-0.777-4.452-1.737c0-0.952,1.991-1.728,4.452-1.728
		c2.462,0,4.453,0.774,4.453,1.728C164.338,101.801,162.346,102.579,159.885,102.579 M235.194,115.698
		c-0.271,1.062,6.164,2.314,6.453,1.779c1.714-3.163,3.896-4.791,7.92-4.791c3.727,0,5.878,1.398,7.533,4.131
		c0.504,0.832,0.35,0.663,0.653,0.854c0.308,0.192,5.974-1.043,6.127-1.39c0.154-0.347,0.039-0.633-0.075-1.099
		c-0.896-3.699-1.312-6.945-0.979-9.036c0.99-6.331,17.392-11.692,35.355-11.692c0,0,8.854-0.268,16.311,0.803
		c7.449,1.072,12.831,3.572,15.814,9.1c1.244,2.313,1.51,6.383,1.271,10.711c0,0-0.22,0.627-0.076,1.279
		c0.13,0.655,5.854,1.196,6.336,1.348c0.479,0.15,0.951-0.019,1.004-0.275c0.053-0.255,0.122-0.632,0.167-0.812
		c1.422-6.145,8.032-6.997,8.032-6.997l-1.138-17.939c-11.959,0-33.835-3.582-46.98-3.582c-13.157,0-25.831,2.047-35.022,4.101
		c-9.188,2.05-14.336,1.711-14.336,1.711s-5.152,0.338-14.347-1.711c-9.188-2.054-21.869-4.101-35.014-4.101
		c-13.159,0-35.031,3.582-46.986,3.582l-1.142,17.939c0,0,6.604,0.854,8.03,6.997c0.08,0.364,0.135,1.02,0.557,1.112
		c0.516,0.114,4.835-0.671,5.623-0.795c0.783-0.125,1.345-0.37,1.313-0.804c-0.335-4.716-0.139-9.262,1.206-11.765
		c2.979-5.527,8.36-8.027,15.823-9.1c7.449-1.07,16.31-0.803,16.31-0.803c17.96,0,34.365,5.361,35.358,11.692
		C236.639,108.332,236.176,111.792,235.194,115.698 M339.242,102.579c-2.469,0-4.459-0.777-4.459-1.737
		c0-0.952,1.99-1.728,4.459-1.728c2.456,0,4.454,0.774,4.454,1.728C343.697,101.801,341.698,102.579,339.242,102.579"/>
	<path fill="#FFFFFF" d="M159.885,102.579c-2.461,0-4.452-0.777-4.452-1.737c0-0.952,1.991-1.728,4.452-1.728
		c2.462,0,4.453,0.774,4.453,1.728C164.338,101.801,162.346,102.579,159.885,102.579"/>
	<path fill="#FFFFFF" d="M339.242,102.579c-2.469,0-4.459-0.777-4.459-1.737c0-0.952,1.99-1.728,4.459-1.728
		c2.456,0,4.454,0.774,4.454,1.728C343.697,101.801,341.698,102.579,339.242,102.579"/>
</g>
<rect id="position" display="none" fill="none" stroke="#000000" width="500" height="500"/>
</svg>
