<?xml version="1.0" encoding="utf-8"?>
<!-- Generator: Adobe Illustrator 14.0.0, SVG Export Plug-In . SVG Version: 6.00 Build 43363)  -->
<!DOCTYPE svg PUBLIC "-//W3C//DTD SVG 1.1//EN" "http://www.w3.org/Graphics/SVG/1.1/DTD/svg11.dtd">
<svg version="1.1" id="content" xmlns="http://www.w3.org/2000/svg" xmlns:xlink="http://www.w3.org/1999/xlink" x="0px" y="0px"
	 width="500px" height="500px" viewBox="0 0 500 500" enable-background="new 0 0 500 500" xml:space="preserve">
<g id="bounds">
	
		<rect x="137.194" y="7.52" fill="none" stroke="#000000" stroke-width="1.1726" stroke-miterlimit="10" width="224.908" height="224.908"/>
</g>
<g id="glasses">
	<path opacity="0.9" fill="#111111" enable-background="new    " d="M327.221,114.36c-0.329,11.142-0.656,22.936-8.869,27.521
		c-8.211,4.587-21.679,6.879-33.502,2.294c-11.823-4.588-18.396-17.364-20.035-24.571c-1.644-7.208-4.271-16.054,1.973-20.313
		c6.094-4.158,18.721-5.241,27.59-5.241c8.866,0,23.845,1.831,26.604,3.603C325.579,100.601,327.55,103.222,327.221,114.36z"/>
	<path opacity="0.9" fill="#111111" enable-background="new    " d="M235.633,120.079c-1.706,7.48-8.522,20.744-20.799,25.507
		c-12.271,4.761-26.252,2.38-34.777-2.379c-8.522-4.765-8.864-17.005-9.205-28.568c-0.344-11.562,1.701-14.283,6.478-17.343
		c2.867-1.838,18.412-3.741,27.618-3.741c9.207,0,22.314,1.125,28.642,5.44C240.066,103.415,237.337,112.597,235.633,120.079z"/>
	<path opacity="0.3" fill="#FFFFFF" enable-background="new    " d="M182.346,129.09c-5.577-4.076-5.84-21.984-0.004-25.835
		c5.834-3.849,18.428-4.787,26.591-2.278C217.094,103.484,195.433,133.063,182.346,129.09z"/>
	<path opacity="0.3" fill="#FFFFFF" enable-background="new    " d="M274.766,127.123c-4.382-3.356-8.089-20.012-2.25-23.86
		c5.834-3.849,17.088-5.383,25.247-2.875C305.929,102.896,284.516,134.596,274.766,127.123z"/>
	<path fill="#111111" d="M338.166,94.469c-0.896-1.493-45.826-4.479-55.713-3.286c-14.957,1.521-20.529,7.78-32.938,7.78
		c-12.412,0-14.943-6.262-32.675-7.275c-9.938-0.565-54.813,1.792-55.713,3.286c-0.896,1.494,0.299,11.955,1.198,12.653
		c0.899,0.697,5.69,0.249,5.69,3.884c0.002,9.561,3.596,21.211,5.688,24.796c2.1,3.585,3.695,7.567,14.678,10.854
		c10.021,2.999,21.27,2.291,28.756-1.294c5.925-2.835,14.978-10.157,19.472-21.211c3.576-8.801,4.543-17.563,12.899-17.563
		c8.359,0,9.596,8.26,13.171,17.058c4.492,11.058,13.548,18.376,19.472,21.212c7.487,3.587,18.731,4.295,28.754,1.296
		c10.981-3.286,12.582-7.271,14.678-10.854c2.099-3.583,5.691-15.236,5.691-24.796c0-3.635,4.791-3.188,5.688-3.884
		C337.867,106.425,339.067,95.964,338.166,94.469z M231.82,120.175c-1.498,6.573-7.488,18.224-18.271,22.407
		c-10.78,4.183-23.063,2.091-30.553-2.09c-7.486-4.186-7.787-14.938-8.086-25.099c-0.301-10.154,1.496-12.547,5.69-15.233
		c2.519-1.615,16.175-3.286,24.262-3.286c8.088,0,19.604,0.986,25.161,4.777C235.713,105.536,233.317,113.602,231.82,120.175z
		 M324.388,114.889c-0.301,10.158-0.603,20.913-8.088,25.096c-7.488,4.185-19.771,6.273-30.553,2.094
		c-10.781-4.186-16.771-15.834-18.271-22.406c-1.496-6.573-3.896-14.64,1.799-18.523c5.557-3.792,17.069-4.777,25.16-4.777
		c8.083,0,21.739,1.67,24.262,3.284C322.888,102.343,324.685,104.732,324.388,114.889z"/>
</g>
<rect id="position" x="0" y="0" display="none" fill="none" stroke="#000000" width="500" height="500"/>
</svg>
