<?xml version="1.0" encoding="utf-8"?>
<!-- Generator: Adobe Illustrator 14.0.0, SVG Export Plug-In . SVG Version: 6.00 Build 43363)  -->
<!DOCTYPE svg PUBLIC "-//W3C//DTD SVG 1.1//EN" "http://www.w3.org/Graphics/SVG/1.1/DTD/svg11.dtd">
<svg version="1.1" id="content" xmlns="http://www.w3.org/2000/svg" xmlns:xlink="http://www.w3.org/1999/xlink" x="0px" y="0px"
	 width="500px" height="500px" viewBox="0 0 500 500" enable-background="new 0 0 500 500" xml:space="preserve">
<g id="bounds">
	
		<rect x="124.443" y="-7.422" fill="none" stroke="#000000" stroke-width="1.3055" stroke-miterlimit="10" width="250.408" height="250.408"/>
</g>
<g id="glasses">
	<circle opacity="0.2" fill="#00D2E8" enable-background="new    " cx="202.15" cy="117.783" r="31.069"/>
	<circle opacity="0.2" fill="#00D2E8" enable-background="new    " cx="297.156" cy="117.783" r="31.069"/>
	<path fill="#010101" d="M346.477,111.198c0,0,0.291-3.799-4.516-3.799h-7.354c0,0-3.453,0.159-4.142-1.682l0.005,0.14
		c-4.965-14.556-18.714-25.029-34.947-25.029c-15.952,0-29.528,10.114-34.699,24.279c-0.125,0.35-0.385,1.071-0.942,1.229
		c-0.539,0.162-1.379-0.221-1.729-0.419c-2.724-1.521-4.98-2.413-8.504-2.413c-3.521,0-5.787,0.894-8.506,2.413
		c-0.344,0.198-1.188,0.581-1.73,0.419c-0.549-0.155-0.811-0.879-0.936-1.229c-5.181-14.165-18.755-24.279-34.703-24.279
		c-16.23,0-29.984,10.475-34.949,25.029l0.01-0.14c-0.688,1.841-4.148,1.682-4.148,1.682h-7.354c-4.801,0-4.517,3.799-4.517,3.799
		v4.155c0,0-0.284,3.794,4.517,3.794h2.941c0,0,5.661,0.004,7.239,5.809l0.005-0.058c3.315,17.007,18.278,29.839,36.256,29.839
		c20.405,0,36.955-16.54,36.955-36.955c0-4.247,3.438-7.693,8.92-7.693c5.477,0,8.919,3.446,8.919,7.693
		c0,20.415,16.545,36.955,36.955,36.955c17.979,0,32.938-12.833,36.261-29.839v0.058c1.581-5.804,7.239-5.809,7.239-5.809h2.936
		c4.81,0,4.519-3.794,4.519-3.794V111.198L346.477,111.198z M158.322,115.898c-1.282,0-2.334-1.046-2.334-2.345
		c0-1.285,1.052-2.333,2.334-2.333c1.301,0,2.348,1.048,2.348,2.333C160.669,114.851,159.622,115.898,158.322,115.898
		 M203.779,144.867c-14.958,0-27.086-12.126-27.086-27.084c0-14.956,12.128-27.084,27.086-27.084
		c14.963,0,27.082,12.128,27.082,27.084C230.861,132.741,218.741,144.867,203.779,144.867 M295.528,144.867
		c-14.965,0-27.077-12.126-27.077-27.084c0-14.956,12.112-27.084,27.077-27.084c14.961,0,27.087,12.128,27.087,27.084
		C322.615,132.741,310.489,144.867,295.528,144.867 M340.974,115.898c-1.292,0-2.343-1.046-2.343-2.345
		c0-1.285,1.051-2.333,2.343-2.333c1.284,0,2.345,1.048,2.345,2.333C343.319,114.851,342.26,115.898,340.974,115.898"/>
	<path fill="#FFFFFF" d="M158.322,115.898c-1.282,0-2.334-1.046-2.334-2.345c0-1.285,1.052-2.333,2.334-2.333
		c1.301,0,2.348,1.048,2.348,2.333C160.669,114.851,159.622,115.898,158.322,115.898"/>
	<path fill="#FFFFFF" d="M340.974,115.898c-1.292,0-2.343-1.046-2.343-2.345c0-1.285,1.051-2.333,2.343-2.333
		c1.284,0,2.345,1.048,2.345,2.333C343.319,114.851,342.26,115.898,340.974,115.898"/>
</g>
<rect id="position" x="0" y="0" display="none" fill="none" stroke="#000000" width="500" height="500"/>
</svg>
