<?xml version="1.0" encoding="utf-8"?>
<!-- Generator: Adobe Illustrator 14.0.0, SVG Export Plug-In . SVG Version: 6.00 Build 43363)  -->
<!DOCTYPE svg PUBLIC "-//W3C//DTD SVG 1.1//EN" "http://www.w3.org/Graphics/SVG/1.1/DTD/svg11.dtd">
<svg version="1.1" id="content" xmlns="http://www.w3.org/2000/svg" xmlns:xlink="http://www.w3.org/1999/xlink" x="0px" y="0px"
	 width="500px" height="500px" viewBox="0 0 500 500" enable-background="new 0 0 500 500" xml:space="preserve">
<g id="shoes">
	<path fill="#231F20" d="M123.365,458.389h108.414v-31.861c0,0-5.192,0-56.808,0C123.365,426.526,123.365,433.9,123.365,458.389z"/>
	<path fill="#FFFFFF" d="M122.984,451.598c-0.609,3.055,0.06,6.791,0.06,6.791h108.735v-6.791H122.984z"/>
	<path fill="#FFFFFF" d="M221.206,440.403c0-3.24-2.624-5.856-5.853-5.856c-3.223,0-5.856,2.616-5.856,5.856
		c0,3.23,2.634,5.854,5.856,5.854C218.583,446.258,221.206,443.635,221.206,440.403z"/>
	<path fill="#FFFFFF" d="M177.135,426.004v7.118c0,0.847,0.686,1.532,1.532,1.532c0.846,0,1.531-0.688,1.531-1.532v-7.118
		C179.196,426.004,178.177,426.004,177.135,426.004z"/>
	<path fill="#FFFFFF" d="M173.198,434.654c0.847,0,1.532-0.688,1.532-1.532v-7.117c-1.044,0-2.062,0.004-3.063,0.011v7.106
		C171.667,433.969,172.353,434.654,173.198,434.654z"/>
	<path fill="#FFFFFF" d="M162.255,434.654c0.846,0,1.532-0.688,1.532-1.532v-6.979c-1.052,0.029-2.066,0.063-3.063,0.104v6.876
		C160.723,433.969,161.409,434.654,162.255,434.654z"/>
	<path fill="#FFFFFF" d="M167.723,434.654c0.846,0,1.532-0.688,1.532-1.532v-7.085c-1.043,0.015-2.067,0.029-3.063,0.05v7.035
		C166.191,433.969,166.876,434.654,167.723,434.654z"/>
	<path fill="#FFFFFF" d="M156.783,434.654c0.846,0,1.531-0.688,1.531-1.532v-6.771c-1.054,0.052-2.071,0.109-3.063,0.174v6.6
		C155.251,433.969,155.937,434.654,156.783,434.654z"/>
	<rect x="123.043" y="456.679" fill="#231F20" width="108.735" height="5.101"/>
</g>
<rect id="position" x="0" y="0" display="none" fill="none" stroke="#000000" width="500" height="500"/>
</svg>
