<?xml version="1.0" encoding="utf-8"?>
<!-- Generator: Adobe Illustrator 14.0.0, SVG Export Plug-In . SVG Version: 6.00 Build 43363)  -->
<!DOCTYPE svg PUBLIC "-//W3C//DTD SVG 1.1//EN" "http://www.w3.org/Graphics/SVG/1.1/DTD/svg11.dtd">
<svg version="1.1" id="content" xmlns="http://www.w3.org/2000/svg" xmlns:xlink="http://www.w3.org/1999/xlink" x="0px" y="0px"
	 width="500px" height="500px" viewBox="0 0 500 500" enable-background="new 0 0 500 500" xml:space="preserve">
<g id="shoes">
	<path fill="#D9D9D9" d="M179.57,389.677h54.55v88.758H105.837V461.33c0,0,8.783-23.575,48.077-23.575
		c18.49,0,25.655-18.953,25.655-38.369C179.57,395.454,179.57,389.677,179.57,389.677z"/>
	<polygon fill="#AFADAB" points="208.64,467.802 208.64,402.882 234.119,402.882 234.119,468.802 	"/>
	<path fill="#C10606" d="M236.43,405.78c0,0.553-0.467,1-1.043,1h-58.703c-0.576,0-1.043-0.447-1.043-1v-15.104
		c0-0.554,0.467-1,1.043-1h58.703c0.576,0,1.043,0.446,1.043,1V405.78z"/>
	<path fill="#C10606" d="M234.119,471.803v-15.638c-30.909,2.073-50.381-17.278-60.139-30.879
		c-3.539,6.474-8.889,11.077-16.418,12.195c-8.364,15.237-31.636,16.413-46.093,15.526c-4.215,4.535-5.632,8.319-5.632,8.319v17.104
		h25.887c0,0,21.713-9.063,48.987-23.624C196.077,472.3,219.802,471.742,234.119,471.803z"/>
	<path fill="#8D1010" d="M234.119,477.434c0,0.553-0.448,1-1,1H106.837c-0.552,0-1-0.447-1-1v-8.632c0-0.553,0.448-1,1-1h126.282
		c0.552,0,1,0.447,1,1V477.434z"/>
	<path fill="#332D27" d="M163.038,447.176c0.195,0.451-0.055,0.996-0.561,1.217l-3.516,1.529c-0.506,0.22-1.076,0.031-1.273-0.42
		l-4.635-10.653c-0.197-0.452,0.054-0.996,0.561-1.216l3.516-1.53c0.507-0.22,1.077-0.033,1.272,0.419L163.038,447.176z"/>
	<path fill="#332D27" d="M149.88,448.685c0.065,0.446-0.32,0.873-0.866,0.957l-3.791,0.572c-0.545,0.082-1.042-0.211-1.111-0.658
		l-1.589-10.521c-0.067-0.445,0.319-0.873,0.866-0.956l3.79-0.572c0.546-0.082,1.043,0.212,1.112,0.656L149.88,448.685z"/>
	<path fill="#332D27" d="M173.637,438.884c0.288,0.3,0.198,0.853-0.201,1.233l-2.768,2.653c-0.398,0.382-0.954,0.448-1.243,0.148
		l-6.783-7.078c-0.289-0.3-0.198-0.854,0.2-1.234l2.768-2.653c0.399-0.383,0.955-0.448,1.243-0.146L173.637,438.884z"/>
	<path fill="#332D27" d="M182.777,428.494c0.401,0.245,0.49,0.824,0.202,1.297l-2.003,3.269c-0.289,0.471-0.846,0.653-1.246,0.409
		l-9.426-5.774c-0.401-0.246-0.491-0.825-0.202-1.297l2.002-3.269c0.29-0.473,0.848-0.654,1.247-0.409L182.777,428.494z"/>
	<path fill="#332D27" d="M186.619,415.891c0.427,0.135,0.638,0.669,0.472,1.195l-1.153,3.656c-0.166,0.527-0.646,0.845-1.073,0.71
		l-10.062-3.173c-0.428-0.135-0.638-0.67-0.472-1.198l1.152-3.653c0.167-0.527,0.646-0.846,1.073-0.709L186.619,415.891z"/>
	<path fill="#332D27" d="M186.989,403.54c0.422,0.027,0.732,0.495,0.696,1.047l-0.253,3.825c-0.036,0.552-0.407,0.976-0.827,0.948
		l-9.923-0.658c-0.421-0.026-0.731-0.496-0.696-1.049l0.254-3.823c0.037-0.552,0.407-0.975,0.828-0.946L186.989,403.54z"/>
	<circle fill="#332D27" cx="211.483" cy="428.094" r="15.406"/>
	<circle fill="#F5F5F5" cx="211.483" cy="428.093" r="7.551"/>
</g>
<rect id="position" x="0" y="0" display="none" fill="none" stroke="#000000" width="500" height="500"/>
</svg>
