<?xml version="1.0" encoding="utf-8"?>
<!-- Generator: Adobe Illustrator 14.0.0, SVG Export Plug-In . SVG Version: 6.00 Build 43363)  -->
<!DOCTYPE svg PUBLIC "-//W3C//DTD SVG 1.1//EN" "http://www.w3.org/Graphics/SVG/1.1/DTD/svg11.dtd">
<svg version="1.1" id="content" xmlns="http://www.w3.org/2000/svg" xmlns:xlink="http://www.w3.org/1999/xlink" x="0px" y="0px"
	 width="500px" height="500px" viewBox="0 0 500 500" enable-background="new 0 0 500 500" xml:space="preserve">
<g id="shoes">
	<path fill="#231F20" d="M230.828,422.475c0,13.245-10.887,23.983-24.314,23.983c-13.429,0-24.315-10.738-24.315-23.983
		l-0.005-7.333c-2.284,4.821-2.588,10.395-2.588,16.327c0,18.37,11.495,34.265,26.908,34.265s26.908-15.895,26.908-34.265
		c0-5.921-0.297-11.479-2.572-16.296L230.828,422.475z"/>
	<path fill="#808285" d="M218.845,456.615c-0.133,0-13.285-0.464-13.285-3.812s13.153-3.812,13.285-3.812
		c2.103,0,3.813,1.709,3.813,3.812C222.659,454.908,220.948,456.615,218.845,456.615z M210.397,452.804
		c2.872,0.586,7.291,1.09,8.448,1.09c0.601,0,1.09-0.488,1.09-1.088c0-0.602-0.489-1.089-1.09-1.089
		C217.686,451.715,213.268,452.217,210.397,452.804z"/>
	<path fill="#808285" d="M192.579,456.615c-2.102,0-3.813-1.71-3.813-3.812c0-2.103,1.711-3.812,3.813-3.812
		c0.134,0,13.289,0.464,13.289,3.812S192.713,456.615,192.579,456.615z M192.579,451.715c-0.602,0-1.09,0.489-1.09,1.09
		c0,0.6,0.488,1.09,1.09,1.09c1.158,0,5.578-0.505,8.451-1.091C198.158,452.217,193.738,451.715,192.579,451.715z"/>
	<path fill="#231F20" d="M202.823,452.879c0,1.76,1.427,3.185,3.186,3.185l0,0c1.761,0,3.187-1.425,3.187-3.185l0,0
		c0-1.759-1.427-3.186-3.187-3.186l0,0C204.25,449.693,202.823,451.12,202.823,452.879L202.823,452.879z"/>
	<path fill="#808285" d="M203.551,452.313c0,1.361,1.102,2.463,2.458,2.463l0,0c1.358,0,2.461-1.102,2.461-2.463l0,0
		c0-1.356-1.102-2.456-2.461-2.456l0,0C204.653,449.854,203.551,450.955,203.551,452.313L203.551,452.313z"/>
</g>
<rect id="position" x="0" y="0" display="none" fill="none" stroke="#000000" width="500" height="500"/>
</svg>
