<?xml version="1.0" encoding="utf-8"?>
<!-- Generator: Adobe Illustrator 14.0.0, SVG Export Plug-In . SVG Version: 6.00 Build 43363)  -->
<!DOCTYPE svg PUBLIC "-//W3C//DTD SVG 1.1//EN" "http://www.w3.org/Graphics/SVG/1.1/DTD/svg11.dtd">
<svg version="1.1" id="content" xmlns="http://www.w3.org/2000/svg" xmlns:xlink="http://www.w3.org/1999/xlink" x="0px" y="0px"
	 width="500px" height="500px" viewBox="0 0 500 500" enable-background="new 0 0 500 500" xml:space="preserve">
<g id="body">
	<polygon fill="#C82121" points="284.963,175.487 257.457,193.342 249.615,212.538 242.024,193.342 214.767,175.487 
		116.663,175.487 116.663,480.489 382.486,480.489 382.486,175.487 	"/>
	<rect x="116.653" y="175.487" fill="#D45353" width="20.162" height="305.002"/>
	<rect x="165.925" y="175.487" fill="#D45353" width="20.164" height="305.002"/>
	<rect x="215.024" y="189.646" fill="#D45353" width="20.163" height="290.844"/>
	<rect x="264.124" y="189.646" fill="#D45353" width="20.161" height="290.844"/>
	<rect x="313.223" y="175.487" fill="#D45353" width="20.162" height="305.002"/>
	<rect x="362.322" y="175.487" fill="#D45353" width="20.164" height="305.002"/>
	<rect x="116.663" y="222.964" fill="#962424" width="265.822" height="20.161"/>
	<polygon fill="#962424" points="297.401,175.487 382.486,175.487 382.486,195.65 295.109,195.65 	"/>
	<polygon fill="#962424" points="212.774,195.65 116.663,195.65 116.663,175.487 212.432,175.487 	"/>
	<rect x="362.322" y="175.487" fill="#A33F3F" width="20.164" height="20.163"/>
	<rect x="313.223" y="175.487" fill="#A33F3F" width="20.164" height="20.163"/>
	<rect x="165.924" y="175.487" fill="#A33F3F" width="20.164" height="20.163"/>
	<rect x="116.652" y="175.487" fill="#A33F3F" width="20.164" height="20.163"/>
	<rect x="362.322" y="222.964" fill="#A33F3F" width="20.164" height="20.161"/>
	<rect x="313.223" y="222.964" fill="#A33F3F" width="20.164" height="20.161"/>
	<rect x="264.123" y="222.964" fill="#A33F3F" width="20.164" height="20.161"/>
	<rect x="215.023" y="222.964" fill="#A33F3F" width="20.164" height="20.161"/>
	<rect x="165.924" y="222.964" fill="#A33F3F" width="20.164" height="20.161"/>
	<rect x="116.652" y="222.964" fill="#A33F3F" width="20.164" height="20.161"/>
	<rect x="116.663" y="270.439" fill="#962424" width="265.822" height="20.161"/>
	<rect x="362.322" y="270.439" fill="#A33F3F" width="20.164" height="20.161"/>
	<rect x="313.223" y="270.439" fill="#A33F3F" width="20.164" height="20.161"/>
	<rect x="264.123" y="270.439" fill="#A33F3F" width="20.164" height="20.161"/>
	<rect x="215.023" y="270.439" fill="#A33F3F" width="20.164" height="20.161"/>
	<rect x="165.924" y="270.439" fill="#A33F3F" width="20.164" height="20.161"/>
	<rect x="116.652" y="270.439" fill="#A33F3F" width="20.164" height="20.161"/>
	<rect x="116.663" y="317.914" fill="#962424" width="265.822" height="20.161"/>
	<rect x="362.322" y="317.914" fill="#A33F3F" width="20.164" height="20.161"/>
	<rect x="313.223" y="317.914" fill="#A33F3F" width="20.164" height="20.161"/>
	<rect x="264.123" y="317.914" fill="#A33F3F" width="20.164" height="20.161"/>
	<rect x="215.023" y="317.914" fill="#A33F3F" width="20.164" height="20.161"/>
	<rect x="165.924" y="317.914" fill="#A33F3F" width="20.164" height="20.161"/>
	<rect x="116.652" y="317.914" fill="#A33F3F" width="20.164" height="20.161"/>
	<rect x="116.663" y="365.389" fill="#962424" width="265.822" height="20.161"/>
	<rect x="362.322" y="365.389" fill="#A33F3F" width="20.164" height="20.161"/>
	<rect x="313.223" y="365.389" fill="#A33F3F" width="20.164" height="20.161"/>
	<rect x="264.123" y="365.389" fill="#A33F3F" width="20.164" height="20.161"/>
	<rect x="215.023" y="365.389" fill="#A33F3F" width="20.164" height="20.161"/>
	<rect x="165.924" y="365.389" fill="#A33F3F" width="20.164" height="20.161"/>
	<rect x="116.652" y="365.389" fill="#A33F3F" width="20.164" height="20.161"/>
	<rect x="116.663" y="412.864" fill="#962424" width="265.822" height="20.161"/>
	<rect x="362.322" y="412.864" fill="#A33F3F" width="20.164" height="20.161"/>
	<rect x="313.223" y="412.864" fill="#A33F3F" width="20.164" height="20.161"/>
	<rect x="264.123" y="412.864" fill="#A33F3F" width="20.164" height="20.161"/>
	<rect x="215.023" y="412.864" fill="#A33F3F" width="20.164" height="20.161"/>
	<rect x="165.924" y="412.864" fill="#A33F3F" width="20.164" height="20.161"/>
	<rect x="116.652" y="412.864" fill="#A33F3F" width="20.164" height="20.161"/>
	<rect x="116.663" y="460.34" fill="#962424" width="265.822" height="20.16"/>
	<rect x="362.322" y="460.34" fill="#A33F3F" width="20.164" height="20.16"/>
	<rect x="313.223" y="460.34" fill="#A33F3F" width="20.164" height="20.16"/>
	<rect x="264.123" y="460.34" fill="#A33F3F" width="20.164" height="20.16"/>
	<rect x="215.023" y="460.34" fill="#A33F3F" width="20.164" height="20.16"/>
	<rect x="165.924" y="460.34" fill="#A33F3F" width="20.164" height="20.16"/>
	<rect x="116.652" y="460.34" fill="#A33F3F" width="20.164" height="20.16"/>
	
		<line fill="none" stroke="#890909" stroke-width="2.2311" stroke-linecap="round" stroke-linejoin="round" x1="249.292" y1="212.735" x2="249.615" y2="478.602"/>
	
		<line fill="none" stroke="#890909" stroke-width="2.2311" stroke-linecap="round" stroke-linejoin="round" x1="241.906" y1="195.996" x2="249.292" y2="212.735"/>
	
		<line fill="none" stroke="#890909" stroke-width="2.2311" stroke-linecap="round" stroke-linejoin="round" x1="257.516" y1="195.996" x2="249.292" y2="212.735"/>
	<polygon fill="#890909" points="209.359,175.487 242.024,193.342 244.094,198.575 221.726,227.589 184.344,175.487 	"/>
	<polygon fill="#890909" points="289.874,175.487 257.208,193.342 255.14,198.575 277.506,227.589 314.889,175.487 	"/>
	<polygon fill="#C10606" points="214.767,175.487 242.024,193.342 221.726,220.35 189.754,175.487 	"/>
	<polygon fill="#C10606" points="284.464,175.487 257.206,193.342 277.504,220.35 309.479,175.487 	"/>
	<circle fill="#FFFFFF" cx="257.745" cy="233.166" r="2.461"/>
	<circle fill="#FFFFFF" cx="257.745" cy="280.303" r="2.461"/>
	<circle fill="#FFFFFF" cx="257.745" cy="327.439" r="2.461"/>
	<path fill="#FFFFFF" d="M260.206,374.574c0,1.361-1.104,2.463-2.462,2.463c-1.357,0-2.46-1.102-2.46-2.463
		c0-1.354,1.103-2.457,2.46-2.457C259.104,372.117,260.206,373.219,260.206,374.574z"/>
	<path fill="#FFFFFF" d="M260.206,421.712c0,1.36-1.104,2.463-2.462,2.463c-1.357,0-2.46-1.103-2.46-2.463
		c0-1.354,1.103-2.458,2.46-2.458C259.104,419.254,260.206,420.357,260.206,421.712z"/>
	<path fill="#FFFFFF" d="M260.206,468.85c0,1.358-1.104,2.461-2.462,2.461c-1.357,0-2.46-1.103-2.46-2.461
		c0-1.355,1.103-2.459,2.46-2.459C259.104,466.391,260.206,467.494,260.206,468.85z"/>
</g>
<rect id="position" x="0.5" y="0.5" display="none" fill="none" stroke="#000000" width="499" height="499"/>
</svg>
