<?xml version="1.0" encoding="utf-8"?>
<!-- Generator: Adobe Illustrator 14.0.0, SVG Export Plug-In . SVG Version: 6.00 Build 43363)  -->
<!DOCTYPE svg PUBLIC "-//W3C//DTD SVG 1.1//EN" "http://www.w3.org/Graphics/SVG/1.1/DTD/svg11.dtd">
<svg version="1.1" id="content" xmlns="http://www.w3.org/2000/svg" xmlns:xlink="http://www.w3.org/1999/xlink" x="0px" y="0px"
	 width="500px" height="500px" viewBox="0 0 500 500" enable-background="new 0 0 500 500" xml:space="preserve">
<rect id="position" x="0.5" y="0.5" display="none" fill="none" stroke="#000000" width="499" height="499"/>
<g id="body">
	<rect x="116.405" y="174.13" fill="#151517" width="265.854" height="307.25"/>
	<polygon opacity="0.5" enable-background="new    " points="338.482,174.13 236.579,302.125 249.313,283.219 303.284,174.13 	"/>
	<polygon fill="#EAEAEA" points="209.759,174.13 249.313,283.219 296.536,174.13 	"/>
	<path fill="#2B2B35" d="M322.169,174.13h-39.082c0,0-47.024,126.387-47.024,127.995c0,1.609,0.019,179.255,0.019,179.255h1
		c0,0-0.193-178.301-0.003-179.255C237.266,301.172,322.169,174.13,322.169,174.13z"/>
	<polygon fill="#2B2B35" points="248.592,281.719 218.347,174.13 176.493,174.13 	"/>
	<path fill="#A3A3A3" d="M242.916,191.135c1.62,0.935,1.62,2.467,0,3.401l-3.905,2.253c-1.621,0.937-4.271,2.468-5.891,3.402
		l-3.903,2.254c-1.621,0.934-2.946,0.17-2.946-1.7v-4.507c0-1.872,0-4.932,0-6.803v-4.508c0-1.872,1.325-2.637,2.944-1.702
		l3.905,2.254c1.619,0.934,4.271,2.466,5.891,3.399L242.916,191.135z"/>
	<path fill="#A3A3A3" d="M255.747,191.135c-1.62,0.935-1.62,2.467,0,3.401l3.902,2.253c1.619,0.937,4.271,2.468,5.895,3.402
		l3.901,2.254c1.62,0.934,2.946,0.17,2.946-1.7v-4.508c0-1.872,0-4.932,0-6.803v-4.508c0-1.872-1.326-2.637-2.945-1.702
		l-3.902,2.254c-1.621,0.934-4.271,2.466-5.895,3.399L255.747,191.135z"/>
	<circle fill="#A3A3A3" cx="249.332" cy="191.565" r="7.719"/>
	<circle cx="249.332" cy="187.699" r="7.719"/>
	<path d="M255.746,189.278c-1.619-0.935-1.619-2.466,0-3.402l3.903-2.254c1.619-0.935,4.271-2.467,5.895-3.4l3.901-2.254
		c1.62-0.936,2.944-0.172,2.944,1.7v4.51c0,1.869,0,4.931,0.002,6.803v4.508c0,1.871-1.326,2.635-2.945,1.701l-3.902-2.254
		c-1.621-0.936-4.271-2.466-5.895-3.401L255.746,189.278z"/>
	<path d="M242.916,186.121c1.62,0.936,1.62,2.466,0,3.402l-3.905,2.253c-1.621,0.936-4.271,2.467-5.891,3.401l-3.903,2.254
		c-1.621,0.934-2.946,0.169-2.946-1.701v-4.508c0-1.871,0-4.932,0-6.804v-4.508c0-1.871,1.325-2.635,2.944-1.7l3.905,2.254
		c1.619,0.935,4.271,2.468,5.891,3.401L242.916,186.121z"/>
	<circle fill="#151517" cx="250" cy="203.958" r="1.625"/>
	<circle fill="#151517" cx="250" cy="220.552" r="1.625"/>
	<circle fill="#151517" cx="250" cy="237.143" r="1.625"/>
	<circle fill="#151517" cx="250" cy="253.736" r="1.625"/>
	<circle fill="#2B2B35" cx="252.725" cy="303.806" r="3.816"/>
</g>
</svg>
