<?xml version="1.0" encoding="utf-8"?>
<!-- Generator: Adobe Illustrator 14.0.0, SVG Export Plug-In . SVG Version: 6.00 Build 43363)  -->
<!DOCTYPE svg PUBLIC "-//W3C//DTD SVG 1.1//EN" "http://www.w3.org/Graphics/SVG/1.1/DTD/svg11.dtd">
<svg version="1.1" id="content" xmlns="http://www.w3.org/2000/svg" xmlns:xlink="http://www.w3.org/1999/xlink" x="0px" y="0px"
	 width="500px" height="500px" viewBox="0 0 500 500" enable-background="new 0 0 500 500" xml:space="preserve">
<rect id="position" x="0.5" y="0.5" display="none" fill="none" stroke="#000000" width="499" height="499"/>
<g id="top">
	<path fill="#FFFFFF" d="M140.395,305.09c15.802,14.279,48.294,20.874,48.66,20.947c1.354,0.269,2.234,1.584,1.966,2.938
		c-0.235,1.189-1.281,2.015-2.45,2.015l0,0c-0.16,0-0.323-0.016-0.487-0.048c-1.456-0.289-30.192-6.118-47.687-19.385
		L140.395,305.09z"/>
	<path fill="#FFFFFF" d="M358.268,305.09c-15.803,14.279-48.295,20.874-48.66,20.947c-1.354,0.269-2.234,1.584-1.966,2.938
		c0.236,1.189,1.28,2.015,2.449,2.015l0,0c0.161,0,0.323-0.016,0.487-0.048c1.456-0.289,30.192-6.118,47.687-19.385L358.268,305.09z
		"/>
	<path fill="#FFFFFF" d="M249.331,329.897c-44.362,0-73.721-6.191-81.502-8.86c21.873,7.501,75.024,51.467,75.024,51.467h12.956
		c0,0,53.151-43.966,75.024-51.467C323.051,323.706,293.694,329.897,249.331,329.897z"/>
	<path fill="#466475" d="M186.028,330.501c7.835,4.893,15.947,10.738,23.532,16.141c20.462,1.815,39.771,1.828,39.771,1.828
		s19.551-0.152,40.013-1.97c7.586-5.4,15.95-11.211,23.29-15.999c-16.708,2.356-25.733,5.577-63.303,5.577
		C211.761,336.078,202.736,332.857,186.028,330.501z"/>
	<path fill="#466475" d="M237.781,368.359c7.004,0.247,11.551,0.287,11.551,0.287s4.547-0.04,11.55-0.287
		c3.899-3.047,9.09-7.24,15.477-12.148c-9.296,0.8-18.664,1.122-27.025,1.122c-8.362,0-18.014-0.54-27.309-1.339
		C228.314,360.83,233.844,365.312,237.781,368.359z"/>
	<path fill="#FFFFFF" d="M266.665,252.554h-37.986c-1.233,0-2.232-1-2.232-2.232c0-1.233,1-2.232,2.232-2.232h37.986
		c1.231,0,2.231,1,2.231,2.232C268.898,251.554,267.898,252.554,266.665,252.554L266.665,252.554z"/>
	<path fill="#FFFFFF" d="M306.983,174.718c4.805,1.451,7.68,16.368,7.831,24.663c0.014,0.739,0.625,1.328,1.364,1.314
		c0.022,0,0.048-0.001,0.07-0.003l0,0c0.706-0.05,1.257-0.646,1.243-1.36c-0.036-2.037-1.102-18.494-6.476-24.902L306.983,174.718z"
		/>
	<path fill="#FFFFFF" d="M191.68,174.718c-4.805,1.451-7.68,16.368-7.831,24.663c-0.014,0.739-0.625,1.328-1.364,1.314
		c-0.022,0-0.048-0.001-0.07-0.003l0,0c-0.706-0.05-1.256-0.646-1.243-1.36c0.037-2.037,1.102-18.494,6.476-24.902L191.68,174.718z"
		/>
	<path fill="#FFFFFF" d="M358.271,233.739c-7.972,9.308-27.159,10.691-27.371,10.706c-1.229,0.082-2.161,1.145-2.081,2.374
		c0.078,1.18,1.061,2.086,2.227,2.086l0,0c0.049,0,0.098-0.001,0.146-0.005c0.846-0.055,17.019-1.213,27.074-9.054L358.271,233.739z
		"/>
	<path fill="#FFFFFF" d="M260.966,252.599c0,0,24.438-12.824,43.393-45.448c6.522-10.85,9.277-23.199,9.277-23.199
		c11.425,18.863,40.71,60.076,17.345,72.614C307.615,269.105,273.841,259.578,260.966,252.599z"/>
	<path fill="#466475" d="M266.665,249.01c43.911,11.501,65.618,0.689,72.958-5.208c-0.623,5.378-3.209,9.849-8.644,12.765
		c-23.366,12.539-57.14,3.012-70.015-3.967C260.966,252.599,265.384,249.796,266.665,249.01z"/>
	<path fill="#466475" d="M338.234,230.944c-15.813,11.239-42.269,10.071-58.975,7.846c4.476-4.167,9.396-9.354,14.321-15.673
		c19.045-0.854,31.788-4.313,38.885-6.923C334.88,221.179,336.926,226.186,338.234,230.944z"/>
	<path fill="#466475" d="M316.011,187.24c2.801,4.624,4.299,7.303,8.207,13.861c-3.149,1.393-7.276,2.705-15.159,3.289
		C314.459,194.312,316.011,187.24,316.011,187.24z"/>
	<path fill="#FFFFFF" d="M140.392,233.739c7.972,9.308,27.159,10.691,27.371,10.706c1.23,0.082,2.161,1.145,2.081,2.374
		c-0.078,1.18-1.06,2.086-2.226,2.086l0,0c-0.05,0-0.099-0.001-0.147-0.005c-0.846-0.055-17.018-1.213-27.074-9.054L140.392,233.739
		z"/>
	<path fill="#FFFFFF" d="M237.697,252.599c0,0-24.438-12.824-43.393-45.448c-6.522-10.85-9.277-23.199-9.277-23.199
		c-11.425,18.863-40.71,60.076-17.345,72.614C191.048,269.105,224.822,259.578,237.697,252.599z"/>
	<path fill="#466475" d="M231.997,249.01c-43.912,11.501-65.619,0.689-72.958-5.208c0.623,5.378,3.208,9.849,8.643,12.765
		c23.366,12.539,57.14,3.012,70.015-3.967C237.697,252.599,233.279,249.796,231.997,249.01z"/>
	<path fill="#466475" d="M160.429,230.944c15.813,11.239,42.269,10.071,58.975,7.846c-4.476-4.167-9.396-9.354-14.32-15.673
		c-19.045-0.854-31.789-4.313-38.886-6.923C163.781,221.179,161.737,226.186,160.429,230.944z"/>
	<path fill="#466475" d="M182.652,187.24c-2.801,4.624-4.299,7.303-8.207,13.861c3.149,1.393,7.276,2.705,15.159,3.289
		C184.203,194.312,182.652,187.24,182.652,187.24z"/>
</g>
</svg>
