<?xml version="1.0" encoding="utf-8"?>
<!-- Generator: Adobe Illustrator 14.0.0, SVG Export Plug-In . SVG Version: 6.00 Build 43363)  -->
<!DOCTYPE svg PUBLIC "-//W3C//DTD SVG 1.1//EN" "http://www.w3.org/Graphics/SVG/1.1/DTD/svg11.dtd">
<svg version="1.1" id="Layer_1" xmlns="http://www.w3.org/2000/svg" xmlns:xlink="http://www.w3.org/1999/xlink" x="0px" y="0px"
	 width="500px" height="500px" viewBox="0 0 500 500" enable-background="new 0 0 500 500" xml:space="preserve">
<g id="hair">
	<path fill="#382800" d="M316.271,91.987c0,0-6.354-29.117-29.832-30.097c-7.597,0-10.008,5.751-10.008,5.751
		s-0.045-6.478-12.656-6.796c-12.61-0.32-27.497-12.204-23.384-27.418c-15.344,4.503-16.521,23.833-16.389,26.51
		c-6.009-1.96-7.184-9.468-7.184-9.468s-6.139,4.309-5.485,18.021c-10.839-1.633-24.862,8.173-27.188,22.827
		C208.526,91.316,316.271,91.987,316.271,91.987z"/>
</g>
<g id="bounds">
	
		<rect x="118.281" y="-7.281" fill="none" stroke="#000000" stroke-width="1.0056" stroke-miterlimit="10" width="259.438" height="259.438"/>
</g>
<rect id="position" x="0" y="0" display="none" fill="none" stroke="#000000" width="500" height="500"/>
</svg>
