<?xml version="1.0" encoding="utf-8"?>
<!-- Generator: Adobe Illustrator 14.0.0, SVG Export Plug-In . SVG Version: 6.00 Build 43363)  -->
<!DOCTYPE svg PUBLIC "-//W3C//DTD SVG 1.1//EN" "http://www.w3.org/Graphics/SVG/1.1/DTD/svg11.dtd">
<svg version="1.1" id="content" xmlns="http://www.w3.org/2000/svg" xmlns:xlink="http://www.w3.org/1999/xlink" x="0px" y="0px"
	 width="500px" height="500px" viewBox="0 0 500 500" enable-background="new 0 0 500 500" xml:space="preserve">
<path id="hair" fill="#382800" d="M287.973,87.768c0,0-33.973,14.112-51.913,3.108c-4.784-3.826-3.591-9.807-3.591-9.807
	s-46.916,1.62-80.885,45.158c2.385-18.448,17.277-31.991,17.277-31.991s-12.228-0.834-18.446,5.625
	c9.259-24.375,33.969-22.142,33.969-22.142s-10.286-6.458-11.481-11.481c10.527,2.63,30.62-10.048,30.62-10.048
	s-18.376-11.949-6.653-23.671c2.152,12.199,26.99,5.49,33.928,12.905c-5.741-11.722,4.271-17.941,4.271-17.941
	s-2.356,10.048,12.236,14.832c-3.349-11.482,5.829-14.26,5.829-14.26s-3.199,6.151,11.873,11.401
	c15.071,5.25,23.446,10.99,24.399,23.191c19.854-10.047,30.448-5.875,38.273,2.632c-9.33,0-10.522,6.22-10.522,6.22
	s14.831,0.238,22.008,10.046c-8.853-2.15-11.963,3.59-11.963,3.59s12.92,3.948,17.704,16.807
	c-8.372-3.171-11.005-1.915-11.005-1.915s6.354,6.396,7.552,14.769C315.857,89.2,292.758,100.21,287.973,87.768z"/>
<g id="bounds">
	
		<rect x="107.264" y="-41.297" fill="none" stroke="#000000" stroke-width="1.0988" stroke-miterlimit="10" width="283.471" height="283.471"/>
</g>
<rect id="position" x="0" y="0" display="none" fill="none" stroke="#000000" width="500" height="500"/>
</svg>
