<?xml version="1.0" encoding="utf-8"?>
<!-- Generator: Adobe Illustrator 14.0.0, SVG Export Plug-In . SVG Version: 6.00 Build 43363)  -->
<!DOCTYPE svg PUBLIC "-//W3C//DTD SVG 1.1//EN" "http://www.w3.org/Graphics/SVG/1.1/DTD/svg11.dtd">
<svg version="1.1" id="content" xmlns="http://www.w3.org/2000/svg" xmlns:xlink="http://www.w3.org/1999/xlink" x="0px" y="0px"
	 width="500px" height="500px" viewBox="0 0 500 500" enable-background="new 0 0 500 500" xml:space="preserve">
<path id="hair" fill="#382800" d="M212.084,84.547c0,0-1.182,5.9,3.542,9.679C233.328,105.08,287.5,79.75,287.5,79.75
	c-0.221,20.031,26.125,7.154,51.038,31.329c-11.055-23.193-16.606-26.184-36.979-36.034l-6.396-2.749
	c-13.693-5.394-29.827-4.828-45.858-4.828s-29.67,1.246-43.365,6.641l-6.396,2.749c-20.443,9.512-36.025,21.417-47.401,46.699
	C185.641,80.957,212.084,84.547,212.084,84.547z"/>
<rect id="position" x="0" y="0" display="none" fill="none" stroke="#000000" width="500" height="500"/>
</svg>
