<?xml version="1.0" encoding="utf-8"?>
<!-- Generator: Adobe Illustrator 13.0.0, SVG Export Plug-In . SVG Version: 6.00 Build 14948)  -->
<!DOCTYPE svg PUBLIC "-//W3C//DTD SVG 1.1//EN" "http://www.w3.org/Graphics/SVG/1.1/DTD/svg11.dtd">
<svg version="1.1" id="content" xmlns="http://www.w3.org/2000/svg" xmlns:xlink="http://www.w3.org/1999/xlink" x="0px" y="0px"
	 width="500px" height="500px" viewBox="0 0 500 500" enable-background="new 0 0 500 500" xml:space="preserve">
<path id="hair_1_" fill="#382800" d="M370.22,159.636c1.576,0.813,8.16,3.383,19.516,0.724c-21.288-4.97-25.39-29.285-30.258-41.784
	c-4.866-12.499-0.002,0.012-0.004,0.025c-12.013-32.041-38.765-40.4-38.765-40.4s9.689-3.364,37.592,8.396
	c-18.01-19.04-68.441-37.051-110.124-27.788c7.718-11.321,20.582-13.379,20.582-13.379c-44.257-2.573-56.604,25.214-56.604,25.214
	c-40.138-6.689-57.634-2.059-87.994,30.36c17.292-10.961,26.205-13.161,38.556-14.189c-27.788,13.894-52.964,47.639-45.553,82.63
	c0.515-27.788,13.921-34.929,13.921-34.929C120.239,200.834,157,224.75,93.5,262.5c-20.549,9.604-26.726,6.24-27.811,5.413
	c2.533,2.124,30.391,24.11,82.061,9.587c-2,23-14.445,39-45.725,55.25c41.725,11,75.475-29,75.475-29s-6,34.213,56,51.5
	c-31.25-35-14.75-68.75,9.25-69.75s41.25,32.75,16,51.25c10.09-1.729,15.5-8.25,15.5-8.25s2.75,6.25-2.5,12.25
	C297.5,329,296,316.75,296,299s5.25-25.75,13.5-27.25c-11.5,24.25-1.75,52,15.25,70.25c-1.5-23,5.5-25.986,5.5-25.986
	s-2.5,12.486,7.75,19.736C334,308,349.25,298,356.5,290.5s10.25-16,6.75-21c13.5,14,15,30.271,8,46.514
	c13-3.264,17.834-30.31,12.334-43.81C389.75,268.25,397.84,283,397.09,291.25C426.794,231.64,392.885,210.109,370.22,159.636z"/>
<g id="bounds_3_" display="none">
	
		<rect x="49.027" y="-6.238" display="inline" fill="none" stroke="#000000" stroke-width="1.558" stroke-miterlimit="10" width="401.945" height="401.945"/>
</g>
<rect id="position" display="none" fill="none" stroke="#000000" width="500" height="500"/>
</svg>
