<?xml version="1.0" encoding="utf-8"?>
<!-- Generator: Adobe Illustrator 14.0.0, SVG Export Plug-In . SVG Version: 6.00 Build 43363)  -->
<!DOCTYPE svg PUBLIC "-//W3C//DTD SVG 1.1//EN" "http://www.w3.org/Graphics/SVG/1.1/DTD/svg11.dtd">
<svg version="1.1" id="content" xmlns="http://www.w3.org/2000/svg" xmlns:xlink="http://www.w3.org/1999/xlink" x="0px" y="0px"
	 width="500px" height="500px" viewBox="0 0 500 500" enable-background="new 0 0 500 500" xml:space="preserve">
<path id="hair" fill="#382800" d="M357.202,148.999c-6.182-30.498-18.886-53.977-44.339-69.343
	c-41.842-26.8-77.202-19.612-100.766-8.95c-45.4,2.67-68.824,59.887-68.824,59.887s3.263,14.779,6.791,20.124
	c-2.139-17.033,13.762-31.885,13.762-31.885s-4.22,12.158-0.534,20.652c5.849-48.111,58.454-58.406,58.454-58.406
	c-4.852,18.207,21.258,26.933,21.258,26.933s-9.488-10.242-6.809-24.174c6.427,17.97,39.473,21.964,39.473,21.964
	s-8.51-5.663-9.223-17.901c0,0,9.101,10.963,27.142,14.441c-5.313-8.959-4.328-12.176-4.328-12.176s14.659,14.351,29.305,20.803
	c-4.54-8.762-4.144-11.15-4.144-11.15S344.706,111.095,357.202,148.999z"/>
<rect id="position" x="0" y="0" display="none" fill="none" stroke="#000000" width="500" height="500"/>
</svg>
