<?xml version="1.0" encoding="utf-8"?>
<!-- Generator: Adobe Illustrator 14.0.0, SVG Export Plug-In . SVG Version: 6.00 Build 43363)  -->
<!DOCTYPE svg PUBLIC "-//W3C//DTD SVG 1.1//EN" "http://www.w3.org/Graphics/SVG/1.1/DTD/svg11.dtd">
<svg version="1.1" id="content" xmlns="http://www.w3.org/2000/svg" xmlns:xlink="http://www.w3.org/1999/xlink" x="0px" y="0px"
	 width="500px" height="500px" viewBox="0 0 500 500" enable-background="new 0 0 500 500" xml:space="preserve">
<g id="bounds">
	<rect x="287.654" y="104.371" fill="none" stroke="#000000" stroke-width="0.575" width="70.156" height="70.158"/>
</g>
<g id="accessory">
	<path fill="#DD2F30" d="M334.351,128.419c-4.815-2.35-10.809-3.314-13.668,1.862c-5.273-2.676-9.69,1.49-12.353,6.139l-3.845,4.412
		c0,0,4.796,2.104,10.042,0.278c1.664-0.579,3.035-1.376,4.146-2.193l-2.691-4.583l4.613,2.923c0.058-0.059,0.122-0.122,0.181-0.179
		c0.961-1.01,1.426-1.771,1.426-1.771s0.87,0.384,2.31,0.678l2.582-6.107l0.482,6.431c1.29,0.017,2.741-0.115,4.284-0.529
		c5.364-1.438,8.853-5.56,8.853-5.56L334.351,128.419z"/>
	<path fill="#DD2F30" d="M340.966,138.461c0,0-0.084-0.038-0.238-0.102c-1.313-0.542-4.429-3.67-9.233-0.348
		c-0.485,0.391-0.942,0.729-1.383,1.043l4.823,3.395l-7.293-1.85c-0.827,0.439-1.591,0.768-2.321,1.033l0.942,5.512l-3.452-4.727
		c-0.792,0.199-1.435,0.271-2.441,0.25l-5.693,5.451l3.289-5.591c-0.315-0.024-0.649-0.05-1.021-0.078
		c-5.846-0.05-8.404,4.376-9.186,5.562c-0.089,0.14-0.139,0.217-0.139,0.217s0.662,1.421,6.724,3.516
		c6.083,1.625,10.882-0.293,12.924-0.945c2.047-0.649,6.133-1.154,10.251-5.917C341.355,139.742,340.966,138.461,340.966,138.461z"
		/>
</g>
<path id="position" display="none" d="M499,1v498H1V1H499 M500,0H0v500h500V0L500,0z"/>
</svg>
