<?xml version="1.0" encoding="utf-8"?>
<!-- Generator: Adobe Illustrator 14.0.0, SVG Export Plug-In . SVG Version: 6.00 Build 43363)  -->
<!DOCTYPE svg PUBLIC "-//W3C//DTD SVG 1.1//EN" "http://www.w3.org/Graphics/SVG/1.1/DTD/svg11.dtd">
<svg version="1.1" id="content" xmlns="http://www.w3.org/2000/svg" xmlns:xlink="http://www.w3.org/1999/xlink" x="0px" y="0px"
	 width="500px" height="500px" viewBox="0 0 500 500" enable-background="new 0 0 500 500" xml:space="preserve">
<g id="bounds">
	<rect x="93.596" y="-47.382" fill="none" stroke="#000000" stroke-width="0.9617" width="311.594" height="311.595"/>
</g>
<g id="accessory">
	<path fill="#2D2D2D" d="M349.809,106.449c-0.07-0.119-7.201-11.988-23.004-23.68c-14.543-10.76-39.662-23.587-76.742-23.587
		c-37.078,0-62.199,12.827-76.744,23.587c-15.801,11.691-22.932,23.561-23.002,23.68l-6.895-4.058
		c0.313-0.53,7.83-13.151,24.797-25.799c15.551-11.592,42.373-25.41,81.844-25.41c39.469,0,66.291,13.818,81.842,25.41
		c16.967,12.647,24.486,25.269,24.799,25.799L349.809,106.449z"/>
	<path fill="#333333" d="M355.418,136.59c0,6.789,5.5,12.292,12.291,12.292l0,0c6.785,0,12.287-5.504,12.287-12.292v-17.993
		c0-6.788-5.502-12.291-12.287-12.291l0,0c-6.791,0-12.291,5.503-12.291,12.291V136.59L355.418,136.59z"/>
	<path fill="#BABABA" d="M363.174,148.207c1.404,0.553,2.934,0.867,4.535,0.867c1.543,0,3.014-0.295,4.377-0.811v-41.339
		c-1.363-0.515-2.834-0.81-4.377-0.81c-1.605,0-3.131,0.313-4.535,0.867V148.207z"/>
	<path fill="#1E1E1E" d="M337.428,151.159c0,8.002,6.484,14.488,14.486,14.488l0,0c8.004,0,14.486-6.487,14.486-14.488v-47.128
		c0-8.002-6.482-14.489-14.486-14.489l0,0c-8.002,0-14.486,6.487-14.486,14.489V151.159z"/>
	<path fill="#2D2D2D" d="M351.512,90.199c-1.141,0-2.242,0.147-3.307,0.4c0.182,0.078,9.266,4.118,9.266,16.801
		c0,8.884,0,16.869,0,20.933c0,1.795,0,2.827,0,2.827c0,3.068,0,8.619,0,16.572c0,12.808-9.277,16.808-9.277,16.808l0.004,0.049
		c1.064,0.255,2.172,0.404,3.314,0.404c7.865,0,14.238-6.375,14.238-14.238v-19.594v-2.827v-23.896
		C365.75,96.574,359.377,90.199,351.512,90.199z"/>
	<path fill="#333333" d="M143.369,118.596c0-6.787-5.5-12.291-12.291-12.291l0,0c-6.787,0-12.289,5.502-12.289,12.291v17.993
		c0,6.789,5.502,12.292,12.289,12.292l0,0c6.791,0,12.291-5.504,12.291-12.292V118.596z"/>
	<path fill="#BABABA" d="M135.614,148.207c-1.406,0.553-2.932,0.867-4.535,0.867c-1.543,0-3.014-0.295-4.377-0.811v-41.339
		c1.363-0.515,2.834-0.81,4.377-0.81c1.604,0,3.129,0.313,4.535,0.867V148.207z"/>
	<path fill="#1E1E1E" d="M161.36,104.032c0-8.002-6.486-14.489-14.488-14.489l0,0c-8.002,0-14.488,6.487-14.488,14.489v47.128
		c0,8.001,6.486,14.488,14.488,14.488l0,0c8.002,0,14.488-6.486,14.488-14.488V104.032z"/>
	<path fill="#2D2D2D" d="M147.276,90.199c1.139,0,2.242,0.147,3.305,0.4c-0.18,0.078-9.264,4.118-9.264,16.801
		c0,8.884,0,16.869,0,20.933c0,1.795,0,2.827,0,2.827c0,3.068,0,8.619,0,16.572c0,12.808,9.277,16.808,9.277,16.808l-0.004,0.049
		c-1.064,0.255-2.172,0.404-3.314,0.404c-7.865,0-14.238-6.375-14.238-14.238v-19.594v-2.827v-23.896
		C133.037,96.574,139.41,90.199,147.276,90.199z"/>
</g>
<rect id="position" x="0" y="0" display="none" fill="none" stroke="#000000" stroke-width="0.9617" width="500" height="500"/>
</svg>
