<?xml version="1.0" encoding="utf-8"?>
<!-- Generator: Adobe Illustrator 14.0.0, SVG Export Plug-In . SVG Version: 6.00 Build 43363)  -->
<!DOCTYPE svg PUBLIC "-//W3C//DTD SVG 1.1//EN" "http://www.w3.org/Graphics/SVG/1.1/DTD/svg11.dtd">
<svg version="1.1" id="content" xmlns="http://www.w3.org/2000/svg" xmlns:xlink="http://www.w3.org/1999/xlink" x="0px" y="0px"
	 width="500px" height="500px" viewBox="0 0 500 500" enable-background="new 0 0 500 500" xml:space="preserve">
<g id="bounds">
	<rect x="177.281" y="-6.323" fill="none" stroke="#000000" stroke-width="1.0114" width="144.597" height="144.599"/>
</g>
<g id="accessory">
	<path fill="#D6272E" d="M251.691,35.306c0-0.552-0.447-1-1-1h-1.752c-0.554,0-1,0.448-1,1v15.588c0,0.552,0.446,1,1,1h1.752
		c0.553,0,1-0.448,1-1V35.306z"/>
	<path fill="#5772B7" d="M237.983,46.733c0,0-33.34,9.546-34.396,37.319c8.942,0,20.224,0.105,20.224,0.105l17.383-36.524
		L237.983,46.733z"/>
	<path fill="#D6272E" d="M261.176,46.734c0,0,33.344,9.426,34.396,37.202c-9.561,0-20.222,0.007-20.222,0.007l-17.384-36.309
		L261.176,46.734z"/>
	<path fill="#FDE20F" d="M249.76,44.762c0,0-7.198-0.196-11.776,1.972c-15.595,11.976-14.174,37.426-14.174,37.426l25.506,0.308
		h0.893l25.505-0.308c0,0,1.418-25.45-14.174-37.426C256.96,44.564,249.76,44.762,249.76,44.762"/>
	<path fill="#289247" d="M249.579,83.703h-45.992c0,0,0.996,17.118,45.992,17.118c44.997,0,45.991-17.118,45.991-17.118H249.579
		L249.579,83.703z"/>
	<path fill="#5772B7" d="M237.75,31.132c-4.92,0-9.285,1.247-12.075,3.174c2.79,1.929,7.154,3.176,12.075,3.176
		s9.285-1.247,12.075-3.176C247.035,32.379,242.671,31.132,237.75,31.132z"/>
	<path fill="#5772B7" d="M261.9,31.132c4.92,0,9.285,1.247,12.071,3.174c-2.786,1.929-7.151,3.176-12.071,3.176
		s-9.284-1.247-12.074-3.176C252.615,32.379,256.98,31.132,261.9,31.132z"/>
</g>
<rect id="position" x="0" y="0" display="none" fill="none" stroke="#000000" width="500" height="500"/>
</svg>
